<mxfile host="app.diagrams.net" modified="2021-12-04T00:31:43.896Z" agent="5.0 (X11)" etag="E_SwEC4bxGdYE4SgR6JN" version="15.8.7" type="github" pages="3">
  <diagram id="QrgwSfwA3ZyEnwDPh4sy" name="wi-fi.old">
    <mxGraphModel dx="1350" dy="764" grid="1" gridSize="10" guides="1" tooltips="1" connect="1" arrows="1" fold="1" page="1" pageScale="1" pageWidth="850" pageHeight="1100" math="0" shadow="0">
      <root>
        <mxCell id="0" />
        <mxCell id="1" parent="0" />
        <mxCell id="Rqz7mpYMq3LJf2_j5biJ-6" value="" style="shape=image;verticalLabelPosition=bottom;labelBackgroundColor=#ffffff;verticalAlign=top;aspect=fixed;imageAspect=0;image=data:image/png,iVBORw0KGgoAAAANSUhEUgAAAboAAAFcCAYAAAC+6nsaAAAABHNCSVQICAgIfAhkiAAAIABJREFUeJzsnXd4W+X5/u/3nKO9LQ95ywkJhABx2GXFUEZoaTFtoVBoY6BQSumvgi7oAFGg5dtvC6ZAoZSCwyh0UQfSb4GOOAQoq8RhhoQkthNvybJs7XHO7w9bjizLW+PYfj7XlQtLOuP1haVb7/u8z30DBEEQBEEQBEEQBEEQBEEQBEEQBEEQBEEQBEEQBEEQBEEQBEEQBEEQBLF44fM9AIIgCCJvMABcvgdBEARBEJmGFRcXX/jY40/uf+KJJw+Ul1dcBcAAmvwQBEEQCxymVmuOu+kHP3xle+s7UvK/226/4x2DwfBpABqMzPQWDaTeBEEQSwDGmPWss87+xR/++KeHVq8+ojL19ZUrDy25/Iorv9Tb03vIrl27dkiS5Acg5mGoGWdRqTZBEAQxAW716tXfveuuxh8Wl5QYZnLCwMBA8MYbv/fAm2+88VMAXgCx7A4xu5DQEQRBLE6Y0Wg60+m8tfH0M844fC4X2PXRR/3XXXftDf39/ZsALNgZHgkdQRDEIkMQhOVXXvnVe6/5+rXnZuJ6zz777Dt33H7b1ZFIuBVABICUievmChI6giCIRQJjzHr8CSd8+8EHH7opG9e/4Ybrf7u1peV/RTHeDiCKBSJ4JHQEQRALH2a326+6/fY7bl59xJHl2byR2+0OXPeNa3+6c+eH92JkOTOezftlAhI6giCIhQtTqzXHXn/DDY0XXfTFk3J541deeXmv85abf+xyuZ6DzOt3JHQEQRALEMaY9QtfuPBXP/jhj76Uz3E89tjGV++/774b5Fy/4wEUYKRBUIGRKajsBkkQBEGMwa1evfp7jz/+5F/Wn/upY/M9mDVrais///kvXLp///6KjvaOnZIk+SCz2R3DiMilIwyZDZYgCGIJw4xG05n33f/rR4488siKfA8mHbt37XLdfPOPG+VWv2NI744ii8ERBEEQI+0C3/3e9x/LdR1urmze/Ny79zTe/TOXy9UMIIQ8rxQmRE5K+kezOIJYAjDG7AqFol4UxdZ8j4VID2Os4IQTT/zxs89u/lM62y65snLloSVf+cqGzwcDobXvvvvuG6PLmXmbQNFmFIJYepj1Wt3t1gLLVwReMITC4fbuvt4GURRb8j0wYhzs2m9ct/nqq6/+lLRAd05wHIPFYkF1VeVKSZJ2520c+boxQRC5h+f5+nJbaWtJUdE3OMbxkUikV61SVddUVm2xGE3NjDF7vsdIjMHt3PnhXqPRCKVSme+xzBq9Xofqqiq89p/XejiOm5MFWaYgoSOIJQBjrLbQUtBir6j8q1qlqvb7/TvaOw98en93l62rt+fWWCzmLbBYzl9WVb1Po1Y7AZjzPWYCjOM4AWDQaDQwGg0QBCHfY5oWtVqFsrJS2EpKwPM8eJ7jOcZM+RwTCR1BLG7MRr2haVlV9XaT0bguFot5O7o6L+9x9dcmliqDoZCzo6uztt/t3ggAZSW2W6rLK9oUCkVDPgdOAAxsrLzEGAedTgedTgeOk1/VieMYiosLUVFeDq0maTM/4xhGymR5GzQJHUEsUjRqtbO6vKKtyGrdAAA9/X33tHcesEej0abUYyVJahvyDTfs299xut/v3yEIgqmqrPzRQktBC8dxdTkeOjEFgiDAYDBCo1EnyWB+MZtNqK6qgtFgHPf8KW++g70KlXr0oSr3IxuBhI4gFhkcx9WV20rbykpstwiCYPIODW3d29Fe4w8EHAAGpzpXFMWWHld/bUdX5+WxWMxrMhrX1VRWbTHqDU2g5UxZoVSqMFK/U+RtDDqdFtXVlSi0WsHzPERJQih+cOP+y8cdhWXRcGj04WQ921mHhI4gFgmMMXuhpaClprJqi1qlqg6Fw+379nec7vIM1EmS1Daba0Wj0ab2zgP2rt6eWwGgyGrdUF1e0TZavyNkA4NGo4Ver8tp/U4QBJSVlaJPpUVXODr2PMcY1PyUspKXOSgJHUEsfMw6rbZxWVX1vkQd7kB31/WdPd32ebYMDAZDIefejvYa79DQVkEQTGUltlvKbaVttJwpL3heGK3fabNav+M4Bqu1APbqKmg1GqyxGFGt02btfpmChI4gFjAqpdJRXV7RZisq/hYA9LvdG9s7D9jDkUhjpu4hSVKbyzNQt29/x+mhcLg90Y5QaClooXYEeSEIChgMRqhUqozX7xLtAh3SwpONhTdigiDAcVydrbCotaK07O6kOtzaId9wA6apw80VURRbOnu67Yl2BJPRuG5ZVfU+nVbbCKrfyQq1Wg2DwZCR+t0BMHgNprF2gTUW4/QnyQwSOoJYQDDG7BajqbmmsmqLTqdbEwqH29sO7L9gtA6XEyuvYCjkbO88YE+0I9iKir9F7Qjy4OtXfxUP/fp+ACPtCBqNFjrd7Op3bwfDaOj3QhAEFBcXom55DY4ptmZryDmBhI4gFgZmjVrtXFZVva/AYjk/Fot5u3p7bu3s6bbH4/HmPIxnMNGOkKjfVZWVP2orLGql+l3mWLu29tCZHvvL//kZ/v3SNvzyV7+C29U/9rwgjNTvtFrNjOp3x+rUaF5RhcqK8gntAgsVEjqCkDkKhaKhuryirazEdgswUofr6OqsDYZCzjwPDaIotrg8A3UdXZ2Xh8Lhdp1OtybRjkD1u/lTUGA1zOQ4t6sfjz/1+7HHf/njHycco1AoYTAYoFKNb2dri8bQFo0BGGkXqKysGGsXWCyQ0BGETOE4rq7QUtBSVVb+aKIOt29/x+lDvuGG2bYLZJtoNNrU2dNdm9yOUFVW3krtCLnhRz+4CcFQZOzxK6++PMmRDGq1Gk/7w/j9cAAAYFcIWKnToqysFKU2GxRCVvvy8mJPTUJHEDKDMWY36g1NNZVVW5Jtu1yegTqZJwyMtSMMeDybktsReJ6vz/fgFiv/eXkb/v3SNgDAKScej5IiK1576+1xy5epfK2sGF+vKIVOp4PVWoCqyorxtl3ZIZztG0wGCR1ByAiNWu2sKitvTdh2dfX23DqZbZdckSSpzTPkrU9uR7BXVP51tB2hNt/jW2z88pe/SPr5bpx60skAxi9f7g6EsDsQmnDuSP0uZ31wwVzdKBUSOoKQAaPxOWO2XQMez6a9He01o3W4rLQLZJtEO8KB7q7rk9oRtlM7QuZ46Nf3490PdwIALv/yZVh7zNFouPxyAMCL/3hx7LgVWjVWaNVpr5FD8paqR0JHEHkkXXzOvv0dp3uGvPVyq8PNlXAk0piuHUGlVDryPbaFjNvVj8d//yQAoKSoELf+5CcAgLPXr4fxoUfhLSrErp0f5nOIAICS4uK8mTknIKEjFgSMMQvHcWUcz1dxglDD8XxFvsc0TybE5xzo7ro+OT5nkTE45Btu2NvRvjbRjlBRWnY3tSPMnXvvaUSfyw0AuOaqq3B/rwc/bv0AAPD5bf9Cx0sv47lN+eg8Gc+y5cvy7hFGQkfIF8b0CqXyUJVaXatQqaowYmrEGMBpzZa1ttVHfrdo1eHf5tXqo/M91NmQsO1Kjc/JpG2XXJEkqdXlGahrO7D/guR2BEo3nx27dn6Ip/70ZwBA7RGH44c33wzbtn/h3rqT8LWrrsJZZ54FAPjXln/nc5gAAK1Wm/c+BfnH1RJLEZ7j+RJIEqKRyB4AsdQDfG7XHp/b9RwAvdZW+lntEUde5X6p5X4pEnkv98OdGRzH1ZUWlzSpVapqAPAODW11D3pk1yqQC+LxeHNnT3eLRq12FFsLHQUWy/kFFsv5Xb09twZDoUYs0Lpkrrjj9p/AtnoVAOD22+9AT3c37vz5zxEIhfHo40+gu7sLh9TY8fG+Nuza+SFWHrYqb2MNBALx0R8ZqL2AIAAACsaYWYzHe0VR7EIakUvBF+jp/r3rX//4vurc825CWXlDDsY4KzIZn7PIGEykmw94PJuAkXTzcltpK9mJTc7zm5/Da2+9jZ73P8Qph6zA2evX4waHA739LgDA+jPPwLOb/4bzPvUpAMj78uXePXsDoz9S8CpBYOQbn1KSJDeAeMprasZxxRzPV/CCsIwxVjjuVUkaCm165lKsWVsnI7GbEJ+TsO1apHW4OZHcjuD3+3eoVarqRLr5Em9HGPceeNU7jE0uD+6482cAAK1ahbsaR1a79+zZM/KcRo3rrvsmAOCSL10KIP/Ll719fYn+OQpeJQgAPAB/ynMqjuPLOJ4vhCTFxHj8gCSKYaVOf7hl+SHXKgyGM8Yd/ffNDViztg56fV2uBp2OhG1XanyOHGy75Eq6dPNlVdXbl3C6ufTkk0+ONcOdZDLg4989OLYB5eorr4SttBQA8Ppbb+EL9Z9FIBjCefUX4Ke33Ya1xxyNQ2rs2NPWgf+8vC0vv0AaKHiVWPKkzuJUAARRjHeJ8fgBSZIGAEAUxc6wb/glz56Pfy3GYn7huBPvBGMHPwif/5sDX77cmbthHyQRn5Ns25Xt+JzFRiLdvKe/7x7gYLr5UmxHeP/99x5PNHon+1keUmPHz3/5y3HHbnvlVQDALT+4CT/48Y8BAJdecgkA4C9/+VOORixPSOgIOZFaqI5j4gxv/AHB4Ouxt16/Eyed6jx4FWkQm55pyuUSphzicxYZg/5AwJGcbl5RWnb3Uks3F0WxN9Hofe89jWN+lp/59KfHHXfHT36C4eFhbG7+K354881jz1951VUAgNfffCtHI5YnJHREXuB5fn25rbRNp9U2pqvDMMZqVErldTOq0UjSIN56vQmHrDj4jb+rswnnf64hk2OeBHPCtislPqc2T/E5i4pEunmiHWEJppuLiR8OO/SwsSfvvu9+HH/sMXj69yMzvA8+/ABb/vVvnL1+/biTbaWlOPmE49Hncs96+TJvNiZZgISOyAscx9kEnjcXWgoallVVby+3lbYZdLqHjHr9I+W20rZlVdV7K0rL7l5WVb3dVljUqlIqHVN+sIXDrSgpHf/6qy+3QKXK2mYGhULRUG4rbU3YdqXE59AyZQYZbUeYkG4+mo6wmOt3Y5/RF1/2Zdz6ox+huHAkBLX1vQ/wlSuuxPHHHoPPfOazWHtM+nbSMz/5SQCzX77MSzEtSyym34VYQCgUigaT3tDg8gzUKRSKBr1GW19gsZwPAKIoRjmOS5sVMuDxbPIFA83RaLQZqWKiUtVCp7djwD0yk9Lr62A02dHV2ZTJsXMcV1dgMjtNRuM6APD7/Tv6BtwO2kmZGxhjdoNO70w03MdiMW9XX69jIRlfzxSO40o+3rOvJ/X5h359Px7//ZNjG1OAkbrdpZdcMm7pEgB6urtRVbMMxYVWbHv51Qn3MJkMEAQFOJYdOXjxH/90XXzRF74TjcWexch7NueTRZrREXknGo0+5hny1g8ND78CAMkiJ4piJPnYAovl/Kqy8keryyvajHpD07j4l3C4FZVVB2dwfn8riortGRyqOV18ziK27ZIlkiS1pUs3L7QUtCy2+p1SqVy25+OPh1Kfv/rab2Dby6/i2//v/2G5vQoA8PG+Ntz605+hsrISd4z6XgLjly+f3/xc2vtkS+T27N0b+tU997wrAVHkcTU079YsxNKE5/latVJVGwgFmzD6BgiGQm+HI5GwIAilgiCYAYAxlvgblURRjCYecxyn5nneajYaL/QF/O9LkrQLAOD3AZFI2+g5IdhK69Db0zLf8WrUamd5ie1pg15/AjASn+PyDFwsiuJr8702MTckSWoLhIJNvoC/XafRnq7VaA61mEwN8Xi8JhKNtmIRLB/HYjE8/fRTHw8P+Spr164pUqlU4yYnxxx3PC697CtYYbejc38H+lwu+AMBbN32Mh76zW/Q09mJI486Cl6PB1u3vYxIKIjzPvNZvOodxtu+AA7TaqBWqzKeJj7g8cRuvsW569sOx9aOjvbt0Wj0bwB6kCexo6VLIi8kLV2ejpG/QzH5dZ7n63Uabb3FZKoXBMGUeF4UxTDHceMcFvZ2tNeMOYwcssKBj3cf9Ixcs9aJHdudcx0nz/P1tqLixoRt14DHs2lweMixxB1N5IhZo1Y7ykpstwAjy5l9blfjIuhbVDHGyjmOW2M2W051XP/tCy699Ev2yQ5+fvNzePh3D49F9wAjjeVfvPBCPPr4E9ColWhtfXfcOSaTAUqFMmMDfqTpse67/vd/trtc/Xsikch/o7HYH5HHLDqAZnREnkia0T2Gkb/DhNBxAARJkj4IRyLN3uGhB30B/0fxWJxpNJrDGGNj/qx+v39Hn9v1P7F4/HkAAGNmqNV2DA+PbOdXqWpRWHTYXGZ0o/E5T9uKir8vCII5FA637+/uuiAYCt2JRTBTWISEYrFYy+CQdyPHuLVajeZQg15fp9VoLg8Eg22SJO2c/hKyJA5gWJKk3lAoeGDbtq07X3jh+WBFRaWturp6QirAISsPxUUXX4Jja2sxNOjBvvYORGNxtL7zDmyrV0FdUABNNIojjlozdk6mZnT/+te/PVdffdUbf3jqyde83qH/hiORrfF4/DkAkWlPzjI0oyPyQtKM7gzGmFaSJN/oS4wxZkk0hyfDGLOrVaorYvH43rSbUcrKG9Db04J4vG3s8ZC3DT5fyyyGZtZptc6Eo0ksFvP29Pc5l0KywGJiERpoMwBKAFaO4w5XCIq1J59y6lk333LLKVVVVZNaa+3a+SHuvuuX+PdLB1sLzjjtVDzw0MNjj+c7o9uzd2/I6bz1wy3//MeH4Uj4g2gs9rYoirskSeoEMDHWPA/QjI7IC0kzukc5jjNLkjTWGM5xnEmSpBBSljMBDMZisS2iKLYi9Q3EmBnLlq9Hd9fB3rVT1jnwwXszFiiVUumosJU2Gw2GdcBIfE7/gLs+Ho+3zP43JPKJJEltwz5fYyAY8Go1mk+M1O/Mjkg0YolGo69BJh/AsyQOwC9JUp8oih0dHe27m//6zIFBr9ey5qijClPrd7sDITCTBV/53Odwzplnwuf1YP+B/Ths5Uqcvf7csePmOqMb8Hhiv7jrrrYf3Hjjf957d8db4XD4lWgs1iKK4nsA+jGyAUUW0IyOyAvJ7QWMMaskSUEACZdzXqFUroxGIjOPRz75tEa89krj2GyO5+04+1wn/r65YbpTF+G3f2I8ZqPe0LjI2hF4ADqO41abjaZb1h59zDkXX3oZPnnG6bO+0FxmdM/8tbn/5/9z5zsdbfv2hqPRd2Ox2JuiKO7FyCpLXndYpoOEjsgLyUKHEWE7JBqJfJR4nTFmUut0RwR9vv9ium/fJ5/WiLdeb0I4fNBq6+LLmvGnpxxjwpcGxpjdarY0JfrhQuFwe09/n4McTRYnjLFaq9nSuFj6H1VK5fW2ouJbEpu1Boe8/zj6zHP0FzVsOOqThx+um+l1ZiN0/337bd9tt93+/puvvfp+OBL9KBaPvSuK4k5Jknow8j6VlcAlIKEj8kKK0IHj+XIGcPF4fH/SYSqD1XpWJBTyhP3+VyZcpKx8JKngxb87xwlagbUelVW1U+y2XKw79IgZoFAoGoqthc6FupN2khWIqyVJ8iXqd2etX3/ebT/5ySdMJnNa44VkZiJ0Ax5P7Gc/u/Pjp554fEckGt0biUbeFEXxvVGBC2CiIbusIKEj8kKq0AGAWqM5JhwK7UvdiMLxfLXOVrpOUip1EaVKF1Gr9fD7BrG/o2XcLA4Y2Wl5wYVOPP1EPdKgUCgayopLGhPfgvvd7o1DvmEHaCflUmOyLzuyTTdnjNnNBmNjwkEoFA63o7T02U5RGhj9UscB0DHGijmOW2k0Gk+66OJLzv/+975/5FTXnU7oGn91X8fDv3ngPZerf08kGt0ei8XelSRpHwAvpg9GJoili0KhaCi0FLSkPq/R6U9SqFRHzOmiBdZ6fP2bLeMie0ZJxOcsr7ZLy6vt0mJ00SBmTyJ1IvF3UW4rbRvntiMPzBq12pkYY3V5xeCox+dk8ACMjLEjFILw5arq6ofu+dX9nXv3tUvp/rkHBqThYd+Ef83Nzw6sXn3EPw16/W9VStV3OY47E0AZRuKzaJJEENMxmdABgEZvOLWwsmoDY8w6o4sxZsbJpzXi5NMm7LBkjNmNekNT8geZQqFomNfgiUVHui9Cckg3Hw3wHUyMy6g3NClMpvNmECycaEco5jjuRKVS+c0TTjjxuZat2wLTCV3rjneC9Rd8/m2TwfikWqX6Ic/z5zLGlgMwgGwjCWLmTCV0AMAYK7BW268sPGTldQqd7mQwZphwUIG1Huee14Rzz2tK88Y3a9RqZ+JDIulb8GJ2uifmiUqpdKQKC/LwN5PBFQgGQMMYq+F5/lyVUvW9S7502Ws73nk3mip07R37o9/53k0fm4zGP2g1mp8rBOHLjLEjABhBrWgEMXumE7okdCqz5VzzqtXfLfz8F58WVh3+fXzx0r/i5NMaUVbeAJ63p7t2ua20LfEhYTGampdIdhmRGcw6rbYx8fez/qJLfLlKN590BWL6Gdx08AAMjLEVPM9fYLUW3vXd79/0UULo7rn3112HH37Eizqt9lcKheJyxtixAIoxMiukZUqCmAuzELoZM2rb1ZL4kLAVFrVSHY6YB5zAC19IFp0s/j3lagVCAGBljB2rEIQNVVXVv/nc5y98xaDT/YbqcASRYTIsdObkb8HV5RWDVIcjMoiyrMT2YbZWCNKtQGis1oszMIubDIYRIStmjB3L8/xnOY77JNXhCCLDZErokr8FL6+2S1SHI7JFpv/WZLACkdiwYgCgBQkckUOWxHLBfIWO5/n65G/Bo7vk7BkbIEGkIUO7eNOvQKxZ60RZ+WyvRRALEoYl8M1qrkLHGLMnfwvOct2EINIy112RtAJBECMIWAKzOpVS9Z2iAuvLszhl3E646vKKwVzthCOIyUjX54Y0wpVuBUK//JDvYM1aZ84HTRB5hmEJCB1jzF5TWRWoqa6OzqQpN7W3SafVNoK+BRPyYcKXsIRzCa1AEMREGEb6XRa10HEcV5d440/1puc4ri5NHS7vbhUEkY5UUSsrse2ZsAJRVt6Au+9vy/dYCSKfKEBCt1D8BwkiLaNf0DqSBO9jxthRAIC772+jDSfEUiaxbMlh6QrdbM1rCUK2aDWa/62urBymjScEMUJC5GYzm9NyHGdTqtW1GoNxHS8Iyzmer8zeEDNHOqFLV9SndgFiEWA+4sSTnv/MZRvIzCCPLOqZwwIguZVASvrvZCm9Cl4QygRBsIiiFI3HogNgTABjAgMEjaXgCLXFUsmUKq3rg/cek0SxK+u/wRzgOK6uprJqCwAc6O663qDT1ydSn71DQ1sHvIPOhZr6TBDp4DiursBkdi6WdHOCmCkMB4WOS3qc/mDGTDzPVwFQT3thjiu1Hnv87brao51gzJSpAWeK5Bmd3OJzGGNmPo1RNEFkAlq5IIhJYIwZAehmex6n1Z7Errj6hXQO/3lknCuEnGoXq1Yd7rz7nvsGH3viKemY445rZGkCXAkiA1AtOsfQ0qX8UQEQAURTnucZY2ZBqSwVlMqCSDDYHY/FugD4xx3FmBnXXNeMB++rhyQN5mjMaeF5vt5WVNyoVqmqE8+1dx64JBaLPZ3PcZnN5vpv/r/rG1esXFmd/Lzb7fY23v0LZ3tb24RAV4KYL4wxu9lgbCywWM4HgFA43N7T3+eIx+PN+R7bYoOETv7wAOJJjxnHcUWMcRpRjHulUfHieL5SbTLXKguLlns/3vVnSRQPHLwCb8fV1zbhgXvrcjv00QEzVms1WxoT9YlgKLRHo1YvB4B9+ztOz1edQqlU1l70xUsazz5n/bqpjtu9a1f7L3/x84ZAwN+So6ERSwiO4+pKi0uaEl8AvUNDW92DHockSa35HttigYRO3nAYmc2NwRgzSpLkx3jxG4f60MO+HRoedqGrc+PYkwXWelRW1WLHdme2BpsGs1FvaCyyWjcAQCwW83b19Tri8XhbYjNKPoSOMWY++thjnd/61g3fms15f/rj05v+72+bHfF4vC1LQyOWMCql0mErKnYKgmACgJ7+vnv8gYATQF5XYhYDJHQLCwUmLmGmp6y8AaHQIAbcB5dBLr6sGX94siEXS5gatdpZbC10pHvTJu+6zLXQVdvtDsf133FardY5b9L52R233bpz54eNUp6XgolFyYQvhz39fc5wJELL5/OAz/cACACAutxW+rFKoayPxmMQRbENQCjpdTPP8+sFQTg+zWvpGR5uxcrDLkZfb+vY8V2dIVgstRgeztqSCMdxdWUlthaLyXw+x3Fq79DQ1q7entMj0ejTiXEwxuwWk6kBAAaHvBslSWrL1ngSaLW6uhtv+lHLFy784he1Wu20O1en4tTT1tUdccSRl3y0c+eg3++j5SUik4TCkUjz4JB3E8e4VVqN5lCjwbBepVBcEAiFdubivbIYoRmdPDAvr7Z7QuFwe2Kd3j3o+YsoikGecYZEsRoY+Ybn8Xqb/cFA87RFa8bMWH5IAz7effDb4LnnNeHvmxsy/QswxuxWs6UpUYcLhcPt3X29Delma7mc0fE8b//Up89rvPCii8+f/ujZ8+ILz2995i9/dlL9jsgGqRu4BjyeTYPDQw4SvNkh5HsAxEG6+3obJElq02o0jgKT+WKlUlkCQBQhxTgwAQAEQTAVWa0bimDdEAqH2weHvM2BYLApbeFakgah04/fIm8yZ3rLvNlkNP6m0FJwESCfpRbGmPmww1Y5bvrhj2/J5n3OPmf9urPPWb/lkd/9duPWli0OWs4kMkk8Hm/u7Olu0ajVjmJroaPAYjnfaDDU9bldjcFQqBFUv5sRtHQpD9QFZvONo8t4rdFo9HlfwP/W6PIeY2AcAIiQYomfAUAQBLNepzvRYjJfo1IoLojGYmpRFHuQ/MdvMNRiYOC1scc8fxh6e1oyMWiVUumosJU2azWaVfF4fDgYDO7q7O1ZF4/HX5jqvGwvXZaU2Bpuu+PO588+Z/05mbzuVKw9+pja09bVfb2jvU3tcvW35Oq+xJIgFIvFWoZ8w09LolSj0+nWGPT6Oq1Gc4l7hlPXAAAgAElEQVTeVmrzDQz8M98DlDuLPsl6gcKLotja0dV5+YDHs4mxkRXmxKwOAERRHLcpRaFQ2IqLin5YYLY8Ou5KPd0ZryEl0pUrSsvuFgTBNOzzvdnR1flJr2+42VZYtClfSQNara7uum9+q/V/f3n3o/PZbDJXrFar6aYf/viWH998a5tWq6vL9f2JxY0kSW2eIW/9vv0dp/v9/h1qlapaG41+n+KrpoeETp4IAAaj0WiTZ8hbv6e9fcWB7q7r/X7/jsQBHMcpACASiXQDgFKpLFEKisJAMLB13JWMJnumBpWIz6mprNqi0+nWhMLh9rYD+y9weQbqJElqDYZCzl63q16n0dbn8s3H87y97vQzmh586OEtx59w4ppc3HMqVqxcWf3gQw9vuezLG1rITozINGKJrarH1V97oLvr+lgs5jUZjeuWVVVvnyzdnCChWxBIknggHIk09rj6a/d2tK/t6e+7JxQOtwOAKEkRYGTzR7/bvTEUDo/foFJUbB/3eNXquYiPWaNWO5dVVe8rsFjOj8Vi3q7enls7e7prUzfESJLUNuQbbhjwDjqtZktjNt98jDHzqlWHO39x1z2tV1x51YZs3GM+nH3O+nWPbnxi36pVhzvJTozIGD3dfweAcCTS2N55wN7T33cPABRZrRuqyyvaVEqlI78DlB+0GUWGMMYUkiRFcbBZnB/9F5ckqdUfCDj8gYCD5/l6haA4IhwJb56xi4J3cFbFa4VC0VBsLXQmdn31u90bh/0+53R1NVEUW1yegTqFQtFQbittdQ24GzO5QaWkxNZw9de+7ky17ZIjN/3wx7e43W7HnT+93dHb29OU7/EQCxxJ6k96NOgPBBx7O9obE7ueK0rL7g6Fw47Jdj0vRai9QB6Yl1fbPUlb7TWMMaUkSd7R1zmO50vFeLxzVlc9ZIUD+/Y2I+HkoVLVorKqbly7wSSkxorMMz7HrFGrHQVmS0N3X28DAMy1vWCmtl1y5Y3XX9vxyO8edlA7ApENUtsRRu3EGpZ6OwItXcqTIMdxyZspREhSjBcE+4yvoFKNLFEm21WdcdaI8E0BY8xu1BuaaiqrtpiMxnWxWMzb0dV5ucszUDePb4eDwVDI2dXbU1dgMjtLCosemO0FGGPmutPPaHr4kY3bcyVybrfLdeQRq7G2dg1crv7eTFzz+BNOXPPgQw9vqTv9jCaq3xGZZrQdwd7V23NrUv1un1wSQvIFCZ1MkSQpyhgrTDwWRbEXAK9QKldPe7JeX4djTxjfKJ5O+FLQqNXOqrLy1oT9UFdvz63tnQfs0Wi0aa6/RzKSJLWNLmcWzea8VasOd97VeG9brupwwWAwVFJcFDz/s58tNJlMeP+DD7wajdaYyXtcceVVG35x1z2tq1Yd7szkdQkCAIKhkLOjq7O23+3eCABlJbZbqssrpsp8XNSrewvtl2OYPH17IZO6dAkAUGu1x4YCgR1I8rfkeL7aZLOdMtTfvz0eiXww7ioqVS2OPaEBH77fMs7jcpqonly7LzDGajVq9cUAEAgGb5zsOK1WV/ft73yvKZd1OKVS4T167VqTIAjwer3Y9vIrXrPZnNVWhd27drXf+6u7HYODgxTPQmScDJchFiQLTegWK2mFjjFm1JtMxw0PDr4MIJx8gkKjPUFhNNpFhUIbMZlKxXA4gIGBtnECl+Dc85rw7380Ihwet2ElNT7H7/fv6BtwO/L9BuB53v7lr2x4YtXhRxxaWlpaOP0Z88c76HGdeeYnC1UqNcLhEP75z3+5TGZLTu4NjFiJPfnEY/XkrEJkC4VC0VBWXNKYMFq3HHHUK9s5viP+3F+/lO+xZRsSOnmQVugAgDFWYCkuOd3T1/uvWX8IMmbGFy9twot/b0oRQFk6pE8Wn+N2u73ZagAfHBz0nnrKySaTyYRYLIZtL29zKRSqnAkcZd0ROcasUasdZSW2W4674ir856EHvKN2Ys58DyybkNDJg0mFbhSVtbzi84Ghoa7g8FC61ydSVt6A8z/XgEceciTP5OSaeTVdfE4gEAiJoijp9XpNpu7Jc1zoE584UQ0AH330UaitvUPS6XQZu/5UUHo5kWdshZaCp5NN2BdzujkJnTyYTugAAEqt9sSCavtJ4WDIN9Td+WY8HN4+7gC9vg620lqctb4em55pQldnU+KlSVKM877tWKvV1V1x5VcbZ+pocuDA/t6KisqSTN3f7Xa5AMBqLczZLI4MoAm5wHHcutLiko1y+1zINCR08mBGQpeAcVyJ0mQ+VigoqOEPXXWMv6S0NP72m6/B7xvE/o6W5BncbOJzcsl843MyLXi54MUXnt/6xz885YhEIpRhR8iKqYKS8zuyzEBCJw9mJXQzvWZiLR4YqcPJYS0+k/E5Pp8vGA6HI/kwcJ4NtKuSWCBMqN139fU6MtVelE9I6ORBRoUudXdVv9u9ccg37ECev52VlNgabvzBjxozLUxut9urUikVer1Bm8nrzhe32+196MFfN3744QfOfI+FIGaKXHdjzwcSOnmQEaHjOK6uuMDaqNPp1gBj6+2OGftgZgmtVlf3uc9/wZltR5Pu7m5XrtoRpuOR3/1247aXtjrjUzToE4ScSfW5Xcjp5iR08mBeQscYs5sNxsYCi+V8YKQO1+d2OfO95MDzvP3U09Y5c50skE/Be/GF57c+85c/O6ldgFgkTFYCWVDp5iR08mCuQmfWqNWORBFZLn+EiTrc1ddc68hX/Swb7QhTsXvXrvaHfvOAk9IJiMVIui/TC6kdYaEI3WK1/kpQvbza3tZ2YP9n4vH45pmcMNf4nGxjNpvrv/n/rm+US3xOLmZ3P7vjtlt37vywkdoFiMWOXMsj07GQhC4xVnGqAxciJoPx94UFBZcMDQ+/0j/gPmWqY1N96+RSKJZ7fE42BO9Pf3x60//9bbOD6nDEUkOuxhOTsVCEDhgvdgmklP8uSIoKrC8bDYaT/X7/jh5X/2QJ4LLc+ssYM6+rO71Rjgnfqfh8w4FwOBKd73IqZcoRBADArNNqnbai4m8B8rESTMdCEjog/XgXtMgB0wtdajNnV2/PrfmuwwHT23bJlbm2I5BtF0FMJLUdQS6mFMksNKFblEwmdLmOz5kp+YjPiUbDrlAoHDcYjBlzQ5mNu8o999x1z9tvveWkOhxBpEeun1fAwhc6nuO4YpVGUy1Jkqg1Gqt4pUongXESA4uEQj6/2/VfMRbbk++BTkWq0Mn1GxLP8/ZLvnRZUy7rcKnxOS9teyWg0Wgy2hg+Vf3uxRee3/rU759ooDocQcyIcTvBAXmsQC1UoeM4jitiHKcRRTEgiWJfuoMY44r15eWf0tUsX9P31ht/EIOB13I90JkwJnTBwHvDPt+/5LbmPVl8TjZJjc95e/t2byQSzdoSqc/nC3Icx7RarRqg+ByCmA+MMbtBp3cm9hTku7d3IQodz3FcoSiKPgD+GZ3BmEG7Zu23I0qlJvbGa9/P7vBmT0LoAMQB8IB8djFVVFRee+MPfvRzo9Goy8X9/H5/0F5dxQ499NARwdm9O9jW3sE0Go06F/c/cGB/7+Mbmx4k2y6CmD9yaUdYaELHMcZ0kiT5MZc2g9KyL6P26E/i75sbMj6yOcJxXF11ecXzHMepAPn0paTG5+QiLWB4eKj3rDPPLBEEAV6vFy1bt7ooPocgFj759t9daEKnBBBJeU7ged7GGFPxCoWZEwQdGOMFjaYwMDi4O54UWQNgJJB0zdq6fItdqtMAAITCobbOnp6afI5rqvicTG3PT8Xl6u8968wzS3Q6HcLhELa0bHXp9YacCRzF5xBETpjQjpCrRJWFJnSpDilqxnEGSRQ9AGKpB/Nq9dHqlavO87//zkbE4+1jL6xZ68T+jlYMuPNhXzPBOy4Wjw+pVarKafrossps4nMynRYwODjoPXTlCqVncDAyMDCQsxQCis8hiNyTj4zMhSR0qSLHYaSeFZ36LGbEJ065Ff99Y2NyICm+/s0WPHBvXRbGOSmTTd+LCqybZ9AwnjVKSmwNV3/t687ZtgssxPBT4GB8Dtl2EUT+SG1HyGa6uZyFzgYghMnXcDnMpk537nlN45Yry8pHfu7qbJrT6GZBuoLsgHfQmfgGM0NnlIyTqfgcOcXjTAfF5xCEvMiFIYZshW55tV0CRkTB6xtuikajzRj5xc0KhaJeo1LX8Rxn9gUDzUmvTQ7P21GzrB4f7z64VT9V/DLMTLfY5lroshGfk7o9X25QfA5ByJqsWhwKmbhItujp77vHoNXVVZWVPwrg0Ugs6lIKinEzh9HNHI/2u90b/cFA86SxEfF4G3R687jnTGZz2mPnjyzjcwBg1arDndmIz0nE4chtdud2u713/vR2B8XnEISsGRzyDTf4Av6mhGl9VVn5o36/35EJ03pZC10wFGr2BwIO5nbZ9VrtjcWFRV8bfUkUIYkc2Nj4i6zWDUWwbojFYl6XZ6ApEAw2Tdii39/XBsbMSNRlPny/FTxvRwaXsVRK1XesFsvXNWr1MkA+Nji5is9JiJwcBI/icwhiYSGKYovLM1Dn9Q03lBWXNOp0ujU1Ot2W+caQyXrpMjmIlDFWW1VW3pJYx00gQoolC14y4Uikc2DQ80QgGLwRAKDX1wEAfL4WACN1uiFv29jjeZBq2xWJRvqGff5tg0Per2KaWVw2ly7zHZ/jdru9uTZ9pvgcglgUTJZu7pzthbiMDy3z8AAgSVJre+cBc0dX5xUDHs+mxIvJIheJRV2J/0YikV6VUlmuVWtOnPTKoVAmvumbjXpD07Kq6u0mo3FdLBbzdnR1Xr6/q6skGAq+XG4rbVUoFA0ZuM+sYIyZjznuuMaHH9m4PZ8ZcVar1eR2u70+ny+Y7Xvt3rWr/Zqrv3r6c89uqieRI4gFz2AwFHLu7WivGfB4NgmCYCorsd1Sbitt43m+fjYXkvXS5Sg8RqyxAADRaPQJT9T76ODwkF2pUNRbjKaGxG5GpaAoDIXD7YntqhNQqszwDh5czqysqsXOD+bcQzXdbqFwJNLY2dPdpNNqnVaTuTVXAalyi89JjCNb7QgUn0MQixdJkto8Q956r2+4rrS4pEmtUlVX2EqbwuFwW6/b9RVJkt6Z7hoLRehSH4uSJLWFI5HGHld/I3O7arUaTYPZaKoHRnY3Dg55m0PhcMu4zSmVVbXjmsTLyu3YsX3Wbhiz7P8Y9AcCjkAwWGs1Wxoj0WjbfNaapyIf8TmzISFymRQ8is8hiKWBKIotPf19jrIS20NKhaJIEIQ1lljs5wODnvXTnbsQhE4CoMNBA+cox3FFoij2jB0gSa3+QMDhDwQcjLGj0io8Y2b4ffP6MJxPR78kSa0uz0Adz/P1JdbCZq9vuDlTuzDzEZ8zHyoqKkvm245A8TkEsXRI3QPh9/t3zGaFbCEIXYTjuBJRFBNCF2eMCQC0AAKpB086jT3pVCde3eYce1xgrceO7S0zHEPGIuPj8Xhzj6u/WaNWO22FRS39ngEnY0wBAGIaG7OpmI1tV6YYGHB7CgqslvleJ9GOMNvNKmTbRRBLign9dXP57F0IQicyxngkzeri8fgBtVZ7fCgQ2AEgPO0VTj6tEW+93oTk5a2zz23AH55smO5UlVLpsBUVOzPtuh0MhZyhcLjJZDD+QqfVHgUAAs/PuK+vpMTWcOMPftSYqzqc3+8PWizmyGc/8xlLOBzCK6++FlEqlcr5Xjcx/unaERK2XRSfQxBLg9TP3vlEly0EoUM8Hu9WqlSHR8LhdxPPhQKBVp3RdEo4FOqLRcLvpT2R5+048WQH3nq9aZzP5SErHHjr9RZMUdfJRY6SJEltg0Per1otFg8A8AI/rWilxufkgqT4HE224nMSIpduhkfxOQSxdOA4bmzTCZAZD8yF00fHccUqtbo6FAi8mXwcLwgrDLbSk+IAC3q9++PxeEhasfIsAIDfN4g9H4+fyalUtTjjLMdk1l+p8TmhcLi9p7/PManjSgZgjNmVCkV9JBptnux/pkKhOGr9uZ/6Sbr4nGyRGp/z7y0tvQaDMesmzoFAICSKovTqKy+/QfE5BLE0SLcHIlOfvQtG6ACAF4Rlap3O7vd6/z2ni6pUtbji6kY8eF99mtlcxpoTM0miDvf1b1x3g8/nC+QiLSARm7NixQpNLBbD29u3e3Mdn/PQbx5wkm0XQSwJsv7ZuyCWLhPEY7G94WBQbSoqOn/I5domSdLAjE8+ZIUDx55Ql07k0sXnZKsFYDakxueYzRYDkL1+NJ9vOFBQUBBdf87ZJkEQsHv37uBHu3ZHzGazSa83ZPp2E6D4HIJYWuQqeXxBzegSMMbMhfaaC4M+n8vvdr0iiWLfpBcqK2/A+Z9rwKZnmlIjeTiOq0sYiAIT43PyxUzic7KRFmAyGsNHHnmEyu/34x///GdvYWFRzrLmyLaLIJYOudgDkcyCFLoEHM9XmyqrzuGNpiJRqdQEhrzuqKBQxxUKFVatHvGMfGlLc6rAzTQ+J9cwxszr6k5vnE18Tqa9JDPVPjBT3nj9tR2P/O5hB8XnEMTiJ90eiFx89i5ooZsD4+JzgOyE/M2F+cbnyCEtYDZQfA5BLCnyGl22oGp08yHVtmuxxedMtT1fblB8DkEsHRQKRUOxtdCZ+OzNxx6IRS9087WOyRbZsu1KpAWoVCplwn1ELpBtF0EsHVL3QOTzs3cxC11Wo9nnCmPMfPSxxzq/9a0bvpWte2Q7LWC27N61q/2Xv/h5A9XhCGJJILvP3kUpdJm0jskkuY7PyUZawGyg+ByCWFpMF12WLxaV0GXDOiYT5Ds+J5EWEA6HI7kSWYrPIYilg1z3QCSQpdAxxmoBQKlQnhIKh1pmcPyc43OyCc/z9k99+rzGXNp2TYZer9fo9XpNtjervPjC81vJtosglgapeyDk8tmbiizbCyxGU3OBxXJ+JBLp3d/dZZvi0AnxOXKy7cplfM5syXQ7AsXnEMSSImPRZblAljM6fjSuRqlUTlpXypV1zGzJdXzOXEmI3HwFj+JzCCItKl4QStUaTWUsFgtyPK9iPK9WGwxlogT4PQO7o4HAa/ke5FyQ6x6IqZCl0E1Frq1jZkqu43NUKhXC4emj+KajtLS0MJEWMNt2BIrPIYgJqAVBKAVjfDwW6/cPD7clvxjwesEYK1IajbWVZ57z697W//4j4nL9NU9jnRWT7IHI+2fvTJDl0mWhpaAlsea7p72NAfmJz5kJPM/bTz1tnXM2tl3zvB8EnvUed9zxJe+809rLOKHE6x3KyLVnOrt78YXntz7zlz87qV2AIA7CGNODMY0kigMA4jM5R1FY9Dn12ed+ZfgPT34L8Xh7loc4J+T62TsbFoLQWSaJcMjrltVEHW4+tl2zRatReWtqapQWS4EGAPbv3+/t6u5WRKOxjMbnTNaOQPE5BDEpKoyskPlnfSbPV+Hqax/DIw85xgVE5x9ZRpfNBdkLXSgcbs+ndUw6MmXbNVMUCiFQVloaraysNAGAxzMQ2LdvXzQQDGdNYH2+4UA4HIkmRJxsuwhiUhhGRC6a8rxOEIQSxjhlXIz7OJ43qo3GFdFI1B8eHnodkjR88ArMjGuua54kKzPnyHUPxFyRpdDZCotaEzU4QD7xOUqlsvZLl1523xmfPOvkXNxPpVJBq1G7Vq9ePbac+Oabb/SC8SWZqM/NhGc3Nb/w12f+fA3ZdhHEpPAYv1TJGGMmAHEpWcwSL3KczXjY4RuGOw+8I3oH/37wKrwdF17SiKefqM/+kNOTbg+EHD5754ushC41PgcAOro6L5eDbVdqfE420wJG63Cu4447fuz6ma7HTQfF5xDEnFEDiAAQpzqIs5VeKnKcYlyM2CErHAgEBlOjxbKNXKPLMoVshC7VOiZBYjNKvpguPifTDdgFBQUoL7OFTCazGhipw/W7XMpAIJgTg2aKzyGIKdEvr7YP+/3+HW7vYGM0Gt0EwDPnq5WVN2DI2wafr2XsuYsva87hrC6v8Tm5Iu/tBemsYwSFwmbU60/I57hmattltVpNc92en46BgQHE4zFUAaE9e/aEw5GYKR6f0QaueUO2XQQxLWOfmVVl5Y8CI59ZQ35f0+guRAZAmvHVujqbcO55Tfj75pax5/Z3tEGlqs32xpTU+By52XZlkrzNlqayjknXXpAr5hOfI5e0gNlC8TkEMWPMy6vtnj3tbYwxZlerVA0FZkuDWqWqjsViXo/X2zzs9zXOqrdMr6+DUmXGgLt57LGttBYf786Ky4hco8uyST5mdLK0jslEfE6+0wJmC8XnEMTckSSpPRgKOTt7up2MsVqDTu+wmEz1RVbrhtHd4lVImkzERdHftr9DP+FCPl8LDil1YMB98HFJaT0+3p3pIcsuPidX5FTo5Godk+n4nJG0gPHb8+UExecQREYYW6aUJKl1yDfcMOQbBs/z9faKymeQsmLGc5xuebVdcg0MPOUdHvrSuCvp9OZxj49aU4tXXsrYQOUan5MrciJ0co7PyZZtl15v0Or1I6KiUikVer0ho03dc4VsuwgiY6Qtq8Tj8eY97W3c8mp72lpdYUHBJb6A//fxeHzzpFf2eDLy/pTrZ2+uybrQ8TxfX1Zc8qBSqSyRi3VMLuNzEjO6bLYjzASKzyGIjMIwUegUSGoa39PexpZX28U0x8Gk139twOs9KHR+X0a/eMo1uixfZF3o4vF4c2dvz2BhgfUXoVDovXg83pLte05GPuNzMpUWMFsoPocgsoYKQCzxgDGmliRpnDvKnvY2DoC5rKTkTY1aUwOAiaIYEqWD54Hn7QgEBsc9/vD9uX4hleUeiHyTk6VLURRb+lz9xyoUigZbYVGL1zfcnGu/NLnE58wnLWA2UHwOQWQVaVTYkr0tFZMcO9jV27ti0ivVLKvHno+bxh6X2OqwZ3fLbAeUugdiodt2ZZKcbkaJRqNNPa7+Zo1a7Si3lbblYiqt1erqPvf5Lzjn0i6QLbRarRrI3uzukd/9duO2l7Y6qV2AILIKA6DEiAsKJEnyCYKwLBaL7Z3xFVSqWoycfFCMTju9fjYN43KNLpMT+WgvGAyGQs6u3p4ms8HYyPO8MxvF0VzH58yFTC9nUnwOQeQOSZK8vCBUxGOxfaNPRURJiggKxYpYNDp9bwBjZhx7QgNeeckx9pxeXzfTZcvFEJ+TK/LmjCJJUptnyFvPcVxdWYmtZWDQ05Sp7a7T2XbJjdLS0sL5tCOQbRdB5IUoRpYwjZIkDQGAGI8f4DjuUJVWd2I44N8BIJj2TL2+DmuOrser25zjnj+v3oE/PNkwzX0XTXxOrsi7BZgoii2dPd12lVLpKLeVtva5Xc65XivX8TkmkxGSGOsNhiKG+WbCzbUdgeJzCCJ/xGOxA2qtdm0oENiB0SXMWDT6UTwWs5hKy+pFgIWGh7viYjwsMqbAISvPAADs2d0ybiYHAOee14TNzY1TxfSki8+RQ3SZ3JGNqfMo5gKT6XGL2fIpABwwMwswpVJZe9EXL2nMVR0uXXzOBx/uxMDAQMbuMZ27yp/++PSm//vbZgfV4Qgip4xZgCWeYIyZDJaCk4YG3P8GMCE/i3FcGdRqu8RxynHmzcmce14TdmxvmSy1gOO4ugKT2ZloF1gs8Tm5Iu8zuhQGvT7f7yxmy3nAiAfbVAeni8/JJmPxOcceUwigEAA++minKxKNFWY6Pichcqn1O4rPIQh5IUmSd9gz8Ia1vPxznt7e18SDNbuR10WxC4FAV9qTGTNj/acbJxO5xR6fkyvkNqNLxowp6nVHHbXmzsuvvOqaXNXhTCZjqKK8TLJYCjQA4PUOhvbs3SflIj7H5/MF/X5f4L5777mdbLsIIq9MmNElodaZzKfqiopWuPbt/T9xqtUWxsw4qtaBVatr8aenHJh47Lj4HGDp2XZlEjkLXVqS43Ny0XxtMhmhVAiuQw89bOw+b7/9Xy/F5xDEkmQqoUug1RZYzzAtW358NB4XA8PDAzFBUEUUCjU4jkdZuR0AsK2lKd1SZrrossUan5MrFozQTRWfk420AJVKBZVS4TrqqKOSUr7fcYUj0cJweMIyfFag+ByCkB0zEbpxMIXicCiUBRLHhElrdFia8Tm5Qm41ugnMJD4nG2kBohgPWCzFCmAk5XvQ6zUNDftyYt1F8TkEsXiQotEPEI1OdciE+Byy7cossha62dh2ZTotIBqNads79mPY58fAwEBO6oBk20UQSwu5RpctNmQpdPOJz0mIYqaWMzPZMjAVFJ9DEEsHis/JLbISukzG50y2PV9uUHwOQSwdKD4nP8hC6LIZnzNir+ULchzHEmbKcmD3rl3tD/3mASfZdhHEwoExVjX645TtT2mYEJ9Dtl25I++7LktKbA1Xf+3rzlzYdslhdpeow5FtF0EsPMptpR1qlapytJbmmP6M9LZdFJ+TW/I2o8tHfE6+wk8TUHwOQSxs1CpVJQBoVOpafyAw5bEUnyMfci50ubbtSsd80wJmC9l2EcTSgeJz5EdOhU5O8Tnj2xFUymykfVN8DkEsKSaLzyHbrjyTE6HLdXzObMh0O0ICis8hiKWDQqFoKLYWOhPtAhSfIy+yKnS5js+ZDwmRm6/gUXwOQUwO47ginufNglJp5XheHYtG/fFYbCgejX6U77HNBYrPWRhkZdflTGy7MgnP8zCZTBlr7p5LOwLZdhHEpKgFhaKC4ziNKIphMR73SZLkB8BxPF+o1OuX6Ypth0Gp1Lg/eO8xSRTTR9rIgOXVdgkAhny+18Ph8M5k266uvl4HxefIk4wLXbXd7nBc/x1nrupwWq0muHxZDTOZzOr9+/d7XW63ye+fejfUTHG73d7pfg+32+1tvPsXTorPIYgJMMZYAWOcShTjfQBiUx7McaWWY4//ZigajQZa374LkuTN0ThnTELoREgxDkwA8h+fk5hYXHbZhgayEExPxoQuOT4nU9ecilzG50zWjkDxOQQxKYwxZtn+SHoAACAASURBVJAkKYw0qdtTwWm1J0lf2nCr9LsHL4SM3ls8z9fbKyr/mngsh/icdH7Au3ftar/3V3c7BgcHaZfnKPMWuqnic7JBuvic999/3xUIhrIen5OY4VF8DkFMixpABICY8ryK5/kSQaks5gSFLhYJD8YikS5JkvrHHZVI3n7+b458i11qfA4wEqHT4+qvzdeYZuIHTJ9TB5m30OVqqZLneaiUgrempkZhsRRogYPxOV7vUDZvPcbuXbvaH/7tg7d3d3c/nJMbEsTChI3+SxY5geP4YkASRVEcBuAHAMZYodJgWKMtLV8zuPujP0qieGDsDJWqFhdc6MTTT9TndPQHmWDblXA38Q4NbXV5BupyPaC5+AHTylOGli55nrefeto6Z7aawLVaTbCosDBSWVlpAgCPZyB4oLOLeb1DOfGupPgcgpgVHMaLHMcY00qS5JvqJEWV/epoLBpBV2fT2JNl5Q3Qas34eHdOa+CTxecsr7Z7gNwL3Xz9gJd6T29GN6Nkw9arqrISVVWVY4/ffPMNVywuFWa6DjcZFJ9DEJPDGKutKitv8Xi9zf5goHkS9w8FgCmTR8coK29AKDSIAffB61x8WXOuZnXTxeckNqPkUugy6Qe8VF2astJeMJvA1Jmg1WqCYjzm5QWFLVM7KqfjxRee3/rMX/7sXGp/EAQxGziOq6uprNoSCofb1SpVdSgcbh8c8jYHgsGmOXs6nnte07jaXFl5AwCMm+llmHTxOelsu3IpdNn0A15q/b5ZSy/IZvRONqH4HIKYOQmh29Pexnier9dptPUWk6leEAST3+/f4RnyNkWi0eZZ7UzkeTtqltWPLVcmNqb8fXNDFn6FyWy7nOkOzoXQ5coPeCklqWQ9pifXuzLnylL6n04QmSJZ6JKeNisUinq9RlufMDYe8Hg2FVgsn8XBzxzJNTDwR+/w0MVpL3zICse4utzJpzXilZdmFIszU1RK1XdsRUU3cRyn4ThOM5P4nGwLXT78gJdCO0LO8uhy3Wc3G5baNJ4gMsUkQjcGY8yuVCjqK0rL7p7sGns72o+VJOm/455cs9aJHdudY4/PPa8pUzO61PgcfzDwHsD4Plf/tdNZd2VL6OTgB/ziC89v/eMfnnJEIpFFFyPE5epGgYC/5baf3GL/8Y9uut7tdsvC8eCN11/bcc3VXz39uWc31ZPIEcS84VMeM0mS2sKRSGNMjE+643JZVfVb0165q7NtnmMDY8xuMZqaayqrtuh0ujWhcLi9o6vz8p6+viN7+/u+VGAyO416QxNjzD7fe80UpVJZe9mXN7T86r4H/prvScDZ56xf9/AjG7fXnX5GE2PMnM+xZJqcCV2C9ra2xhsc37Q/8rvfbsz1vRO43W7vd799/eX33XtPLW02IYiMkSp0isQP7fv3G/x+/zuTnSgIwqVTXrms3D6PcZk1arWzqqy8tcBiOT8Wi3m7entu7ezprk14U0qS1OryDNT5g4HmEmths0atds7jftPCGDMfc9xxjQ8/snG73Mo6V1x51Ya7Gu9tq7bbM7pUnE9yLnQAIEnSYMuWfzd89YoNa1984fmtubz3z+647dYbHN+002YTgsg4ipTH4z5felz9a/a0t7G9He01oihGAEgY6SAPKAXFEVkZkELRUG4rbS0rsd0iCIKp3+3e2NHVWTu62WRCLS4ejzf3uPrrAMBWWNTK83zG2xqq7XbHXY33tuXK9H4uWK1W0223/+zuH998a5tWq6vL93jmS84TxpOJRCKtTzy+se4fL76QsT6RySA7HILILowxTpKk5McKSZKiAMY1vUqS1LZvf4dqigtNXDYzmWe1lJYan+P3+3f0DbgdM4zPGQyGQs5QONxkNhgbeZ53JPfSzRU571OYjBUrV1Y/+NDDWxb6PoacbUaZjmy1I1B8DkFkj5TNKLpRsRsefVngOK5IFMXuWV10zVon3mltHOujK7DWQ602z7CPzmzUGxozGZ+T2LziCwb+U1JYdA0wu80o+fQDzrTR/UINlJaN0CWYi5dbOig+hyCyT4rQcbwgVMVjsbak120SIEqi2DejC6ZrDr/4smb84cmG6cydNWq1s9ha6EjYdmU6PsdiNDUnWiTcHs9fBoe8X5jq+Fz3Ek/mB5zJ6DJgYfYay07oEszEnXsyyMSUIHJDansBx/FlkiQGJUnyJI5RKJWrwBgfDYffm/Ji6UROr6/D8hV141oNUuB5vt5WVNw4mW1XpuA4rk6jVtcLvGAb8g3/VJKkSTfXZNodajry4Qe8kNyjZCt0CWaTjrCY+0AIQo6k6aMTVBrNkeFg8D0k+VtyPF9tLi07bdjt2hkNBt8cd5ECaz1O+EQ9trU0wedrGXueMTOuua4ZD9xbl+7e6Wy7uvt6G2ZYh8sK8/mCPhdMJiMkMdZ71FG1JYnncu0HfM3VXz1d7mIne6EDDiboTrZLaSl09hOEHEnXMM4YM+rN5hOGPZ6XkBK6ygnCMl15xSeDHk97jOdVqKo+Bjs/aEY4PP7LaULkHnnIMeG1NPE5Pf19znAkkrcyRWrJxefzBTmOY1qtNiszKp7nIfCs97jjjh8TuHfeae2NiyjJpR/wQplYLAihS6BUKmsv+uIljYmiLsXnEER+mcwZhTFWYCkpOcPT2/vPWZcQeN6Oq69tSidyk8XnIEN1uNmSqMNNZtvV3d3tKi0tLUx37lwxmYyhivIyyWIp0AAjdbiu7m5FNBrTZvI+k0E1uhxhNpvra9ceXb/tpa3OhbrdlSAWA1NZgDHGTAVl5ecFhoe6gkNDW6a9GGNmHFXrwKrVtambTyaJz3HMOSEhA8wmPieTgqdSqaDVqF1lZaW6ffv2RQLBcE7qgAvZD3hBCh1BEPJgOq9LABBUqjWFyw45MxwK+nz9fR9G/f7tSLQg8LwdJnMtVq2uQ2WVHZubG5PrdIwxu9lgbEyYQ08Wn5NLUleWZoPb7fbm0rA5U1AfHUEQS5aZCF0CxnElSpP5OKHAWhMVBFVEoVCD5wXs72iFd7AV4z9EZxWfkwsyFZ/jdru9KpVKqdfrNZkaW7ZYLEGteXVGIQhi6SCJYm/YM7A57BmY8jiFQtFQVlzSmKjDzSQ+J9tkMj4ncY0DB/b3VlRUlkx3fD5wu93eO396u2Mh1eGmgoSOIAhZkBqf4x0a2jrgHXTms10gm/E5CZGTm+AtVPeTqSChIwgirzDG7Aad3pmw7QqFw+19bpdzPrZd8yWXtl0VFZUl2W5HmAmL2Q+YhI4giHxh1qjVjoRtV1IdLmO2XbNlup7dbJGo1+Vjs8pS8AMmoSMIYs4wxvRzOS/VtmvA49k0ODzkyLRt12yYjQtTtkjcOxv9d6ksJT9g2nVJEMRcMdsrqw7wHKfr6Oq8fCZLjYyxWqvZ0jjH+JysIOf4nGzN8JaaHzDN6AiCmBMcx9XyHKcDAIHn7dFodKrDMx6fM18ylZSSTaxWqykQCIREUZQy0Y6wkGy7MgkJHUEQWSU1Pkcutl25is+ZL4kNKvPZnbnU/YBJ6AiCyAqT2HZlPD5nNuQjPkfguaA/ECqYb5rAXNoRyA94BBI6giAyCsXnADqdFjyHRHyOxucbjny4c5cyHA5Pe+50jLQjDAfC4Uh0KsF+5He/3Uh+wCOQ0BFEPmBMz/N8sVqrrYrHYgHG82qVXl/KCQqNf9DTFh4efguAL9/DnCWyjM859bR1zvnads3ifhB41ru2trYEQAlwMD4nEyKXQK83aPX6hJ2YUqHXG8aSCxZSIGquIKEjiFzCmF4QhFJIUjwejw/4h4b2Jl4KDo/4HCs02hOKVh/5DUmp1Lh3bP+tJIqdeRvvDNGoNScWWwvb5GLbleiHu+yyDQ05W6bUqLw1NTVKi6WgBBgXn5M115PkdoRgwB984Nf337xYbLsyCQkdQeQGxhgzgzEhFo3unurAaDDwev/7777OOK7MdNb6W30d7XtiH75/Z64GOhcsJtM5gDzic5Jtu9xutzfb91MohEBZaWm0srLSBAAez0Bg37590VzF5wBA0yMP37/YbLsyCfXREUQOYIzpJUmKAIjM+lxb6WXS2mPOxN83N2R+ZHODMWYvtBQ8YTQYTgZGlikP9HQ3yDE+J5Pb85NJ5MKtXr16rLH7zTff6AXjM7pMORULPT4nV5DQEUT2UQCIAZCSn2SMmXlBKOZ5XscJwv9v706D3CjPPIA/3a1bmlFrpLns2CMwXkNxeDgCLOBYJpAAIYtzk2Wrok2y5KhNULLZLLkKsdlsUlmyiE0qy0KAcYVssklInC1IbJKNx9hkARM8hg1gm8Ezxscc0ug+Wmp174dxDxqNZkYa9aGZ+f+qXIWu7vcD8Pjt932fv5M1m10yEVNIp49Iojg86wpr1gZp88WBFih2s+JzFKfGx+42KkKn3vgctZsnd/q8mU2bNrmIptfhGNbUnUym1Lr8glZKfI5e8OgSQHtlml3kTCzLemVZLoil0hGx6qC1zeO5ybyu78Pplw59l2R5+tHbqZMD1Nnlpw7vdpqKGTJrqo7PiSeTu5VHlkZpJD5H7bSAyWjMlcsPkSzL+Vwur0v6wEqLz9ELZnQA6nKd+TN25jVDVTM5IrITUX7BqzBMO1151V30wvM/JEF4c73rU58ZpPu/t510XIthWTbQ4ebDynEBJT6HiOisdev3EOk/o2u2bVcmk8kLglBcTmnfq61tl5pQ6ABU5HQ47uvp7PpsQRBGE6nkzlw+H6k6IM3R9AyvPjfePEC7ngjNFDaXK0A9vf302lHNt+xXx+dUt+1S0sWJ9Ct0asfnGJEW0KiVHJ+jF9boAQCsNFPx+K/Smcygz9MRPHt937EeX+eQ1WIJMQzjp0aKHBHRk78J00X9oZnXmcwgXXZFQM3x1mK32cLr16wdUorcqfGxu0dPnvAb1ZuSYRj+0re+NfLIjkePqZkRV7k9X61rquXokSOjn7z949se/eGOAIpcc7BGB6CyQlEYyhcK4VQm7TGbzbe47I7tb+ldcy8R3TsVj/8qk8/tLJVKO6meM2bl8gi52vhZ771xfIQYhtfi8aXJZLqt29f5jdUWn6NE4ugRj7OY1RSfoxcUOgDtxEul0kC8lBxIpFN+i9m83dPuDnZ4PI8Q0UM094lKeXh0ZO5/k6/8aZCs1v6Ztbpjw0PkdPZTJjOo1kAZhun3eTq+53Q6+xkirlXic/Rs20U0XfC0Oo5Qj4cfenDH3sE9IazDqQuFDkAHsiyPCMViZCw6GWFi0f6z1/cdrPE1bkOfX379+OgVsiw/N/NufGqQnM5+Us5mpZIjKg6tOj4nFU+lHnc5nVeqeI+GGB2fo6QF6Dm7W63xOXpBoQPQBktEUq0PZFkeEkVxymQyddT6/Oz1fc8Mj46wFT/Q5G/3Vosl1NPZFa4Vn5PKpP1e3jNQLpcTej26bLX4HKXIqX3+rtJqj8/RCwodgDaqC92s16MnT3iJiDb0+UWa3olZafZuaKu1X9WB1RGfI8vySDQ+FWBZNrCmu2dwKhEfyBcKEdKod2V3d0/w9k98KtyKKd/1pgU0QonPQdsufaDQAWiDpdlHCbgzf2adDlfW5Mxm8187bPbrOI51y5IsMgzTP9Mvct36AA2/NjDzow0bA/Tqyw3PAJYSnyNJ0uDJsdN+q8USWtvTOzQRi4bV3HnpcDgD733f+8Nq7qTUwkJpAY1CfI7+UOgAtCExDGOXZVmJ2hFZlu2UJGmi1pdLpdIjyVLpkZpX2ripn147+ubf+tes9dOhg42s5cyJz5mIRSONnHsTisXIybHTA+2utojb1RZUDowvld7xOWpRZnRLeZyJ+BzjoNABaENkWLZdLpeVQqd0R1m8K0qlczaGaN/gwMxrhuHn//Jc1W27mozPSaQy6SDDMP1e3hNhOXZJs5pG2napIZFIJDf92UZLV1eXfXDv3qjX62t6g4lS5OrZsIK2XcZDoQPQiCzLJYZh2mVZThERSZI0YbPbLy3k8/9HRIu3t1fW5iqPEVzUH6Lf/3bR81Usywa6OrwRp9O5mUjd+BxZloei8anAmu7uI8p7Yh2P4Srjc5odQ70sFnPyhne+w20ymWh4eDjHcSazmtfv7e31ZTKZPMuyjLJbs9I3v/H1u7EOZzwUOgCNyJI0ZbXZLhAKhUPKe4V8/iVHW/ufC/ncG2VRfH3eH5+zcbobSmWrL6u1n847v58OHQzP9zOGYfx8W3ukw+O5hWh6HW5sciKkRXzO5NTUP9uttgDHsvxC63bzxedoKZNJR7cFtvqsVps7m83S4088Me7zdXbzfEMT4roo5+0qZ3eIz2kt6HUJoCKnw3GfJElxZf2LYdlOq9W6vpDP/7Hyexa7/a2ODu+5hWxmolQQpmSWMUssa6Ge3n5yunh69eWds5o5MwxPn/zbnQs0dJ4Vn1OxDqfZTsnFKPE573jnDTdotT2/WiwWjQa2bvW53W4SRZH27d8XNZutunU6GRp64ZUdA4/8Yywa/Yle94TFodABqKi60BERcSbTWSzHuUqC8FKNn7g4u/18iWHNMsuYanY7UYrcww+EZhW/M8xmc7DL6wsrxwUmY7Ed6Wwm3Eptu9Tenl8tn88X/H3r5Y0bN9qJiA4fPlwYGT0uO51OXbqboG1Xa8OjSwCNlUXxGMOy57X7fO9ORaO/o9mbUTLlfP7ZeX9stfbTez4QrlXkquNzWqVtV634HDW351fL5XKJa7cFeJPJRMlkkvbtfzrJ87zb6XSqdYsFIT6n9WFGB6CiWjM6BcOyPT3nbHz/1MkTB4VsdoiIsvNeiOP89I4bp69RGdMzrbpt16z4HCM0Gp+jdnutaHRy3GwycW7eo9tjSsTnLB8odAAqWqjQKcw226V8n3+LbLHahUw6no/FXi+LYk7m+XOos8tP553fT28cH6Fnno5Q1f9E7TZbuMvrCynHBc7kwBm6DnfJZZeF77jj83cs5fetkBbQqKNHjox+555vB3EebvlAoQNQUT2FrhJrNp9LJrNHYhkTMQxH2exQrc0mHMdt7+nsirRSfE53d0/wzi9/NdLsuttC2/NbidK265VXXg4bPRZoDNboAAwklUqvUqk07+fK4exG2nZpTe34nFrb81sN4nOWNxQ6gNY0p23X2OREWCgWDdvVp3V8TiuFnyoQn7MyoNABtJiF4nOMGI8Sn6NX267pbiPaHkdYzNEjR0Yf+I9/D6Nt18qAQgfQIuqJz9GbUfE5Wh5HWAjic1YmFDoA9fA2q/U8qSzl8oVC3T+qFZ+jVduuerVKfE4zaQGNQnzOyoVCB6ASs9m8nW93X09ElEin+utooDxf266w1mOdj9K2q9Xic5Qip0XBe+7ZZw49/NAPQjgusHKh0AGoxMRxfuWfGYbhZVme97sqx+eoQu/4nKWYTvtW5zgC4nNWDxQ6AB1pGZ+zVEbE5zRDOY4Qi8WSSy3KiM9ZXVDoAHTAMIy/zekKK227CoIwOhGLho1s22VUfE5ZFEmNVl1KkWvkOALic1YnFDoAbfF2my2ktO1qlficZtp2LUUikUhuueZqt9vt9omiSPuf/kPGZDK51Li2UuQWmuGhbdfqhkIHrYJjWbbbYrOtlWW5zLCcjeU4m8lm5VmT2Z6Nx18r5XPzd/lvQdXxOa3Qtqs6Pkdr2Ww27+9bz1xz9VVuolnxOaoUuUper9edy+UKkiTJlY83EZ8DKHRgNBPHcT0syzrK5XKqkMsdmPVpioiIHNZ291W9m6/6Znpi/I3MsdcfJVlOGTHYelWuw7VCfE67233zF7/4pQfW9/X16nXPUkmIvv3abT4943OUDSonTrwx/thjP/sJ4nOACE2dwVhWlmU9kiRNEVGxnh9wdvvlru3vuzP52E/DVCy+qPH4GuKw27/V29X9D8rrVozP0aO9VjIRj1533dt9VquNBKFAewb3Rl2uNl3jc9C2Cyqh0IFRzAzD2GRZTjf8S4Zx0ztuvJdeOvQUnTo5oPrIlsBus4V7OrvuZFnWSmT8cQGlbdeXvvK1u6o/0yotIJFIJM87d5N5w4YNDlEU6YWDB5PFYkm3owpHjxwZ/e6/3RtKJBKGHbSH1oRHl2AUpkaRM3Mm01qW5ZxlUUywHNdua28/R5Jlyk3F9hBRhoiIZDlJu3/9Ubrx5gGKRYeqk7f1VB2fo8jksgNkUJFbLD5Hy7QAn8/nOHr0aH5k9Dhjt9t1KXKIz4HFYEYHRuCIqFz5BsMwbURklmV5qsb3XY7eNbeIZrOjeHz0wYof8fSh2wbov34UrJXhpqVabbvSmcygcnzg2BvHt+m9JrfU+JxWSgtoFOJzoB6s0QOAFa+HiKofkUlVry2yLGfnKXJERJnc6VM/Ko2dfoauftubu+dkOUGP74zQRf0hFce7GN7pcETOXt93zN3evlUUxeSJ06c+d3LstL8klkZ0HMcMjuP8gW3XDtz/wA/2LCUjrnJ7vvqj08aTu3ft/eTtH982uOf3QRQ5WAweXYKWXBv6/KeJprfWp7KZgTONiqt7Y5VqvDeHXCy+RM8/O0CbLw7ToYNhIiLKZAbpvPND9OIQr/WsbqXH53i9Xvd0WoDVojzebDWIz4GlQKEDLZmIpjdmtLlcgQ6P55eiKCbjyeTOdDYTqWh7tWiRmyEIQ5TNBIjj/KR0t3jyNwPUu2a7VhtT5onPMbRtl1bxOXqmBTQC8TnQDBQ60Fwmlx1IZdJBhmH6HXZ70OfpCHZ6vR8pCMLoVCI+UBCEgYYOUQ+/NkAbzgnSa0enH2NOxXbSjTcPqF3oWJbd4nG7v6YkErRCfI5ebbu0TAtoFNp2QbNQ6EA3siwPZXO5UDaXC3Ect91pd2w/E1FzF03P6io3R8kT0ckfpLPZ22tcKEFOFz/rvVRKzb/l83abLdTT2fX3kiQVi6XiRCwefySXz9+p4j0aYlR8jpIWIAhCUe9UA8TngFpQ6EBPLJ3ZiFIul3emMumdqUw6tKHPH6O5G6OYLl/n33T5Oj86PDoy99/TbGZ2YVu33q/GAKvjc2Lx+M/EsjjW7nTdIBSLzxgxmzM6PsflctldLpe9mbSARiA+B9SGQgd64mj2jkuWiBLDoyPchj6/RLWPu3C9Xd2vnp4YP3fWu9UzOo9n9usGsSwb6HDzYeW4QDKV2juVTISVIwL5QuH+NqcrbDGbQ3qtz7VafM5S0gIahfgc0AIKHeipetZmojOtv4ZHR1ifp2NQKTSVLGZzz5wrTU6MzHr9h/2DSxlQvfE5siyPpDLpIMuygW6vbyCdyw5qteOyum1Xq6knLaBRT+7etffH//loEOtwoAUUOtANwzBmWZaFitcWWZZnelxG41OBaHyKGIbxd3l9vzSZTJ5isXiiUBRenXOxzi4/nTr55us1a/106GAjw5kVn0NEdGp87O7F4nMkSRoci072m83m4Nqe3qHoVCwiFIuqdMY3Ij6nGbXSAhqF+BzQAwod6Imrem0iIisRCZVvyrI8Mh6dvHjeq6xZG6Tho4Mzr63Wfjp6uO5HidVtu5YSn1MqlQZOjp3eabfZQmt7ekdOT4wH6/1tLUbE5zidzqbPylWmBTSyOxPxOaAnFDrQjSzLIsMw7fKZiB1ZllMmk/ksUSwN130RhuHprA399PRTAzPvXXZFkJ55etH/YTIM0+/lPRHl8agK8TmJfKEQPjU+NuDzdDxqt9vPXfwnszkczsDffeGLA3quwynxOYIg0P79T2ecLlfT2XCNHEdA2y7QGwod6CnPcZxfFEUlS04ql8UJm8Px1jk5dLUwDE83vCtCu54IzXpv3Xo/Pf3UyAK/5NtdbRFlHU7t+BxZlkcmp2LXbOjzy0QkS5IkSJK04AyT4zj/Te+6OfKBD956ixpjqEc0Ojl+/XXXdTudTp8gFGjf/v2qx+dMH0dI5wShWKqenSI+B4yCQgd6ksqSlOY4U1+5LI4SEcmynBby+dfbfb53p6LR3xFRvuYvrdZ+uvb6EO16IjSr1deHbhugn/143l6XdpstXLkOp2XbrmNvHN9GRHRmplLz+gvF52hFic+55uqrukVRpOcOHEgWiyW3VhlxLlebw+WafjxptVrMp0+dnkR8DhgJhQ50JUvSpMlm2SxJ5ZQsy3EiIlmWY6lo9Lf2dvfVJoejsygI6VIhH5VY1kK9ay4lp4unyYkR+s3jwVkXW7M2SM8/O0g1durN07Yr2FAHlgYt9gi0u7sn+OWvfO2+giDUFTLbrGw2m/d4+OLN77rJTUSkd3wOEdFDDz344B8PHNCz6TbAHCh0oDuhUHi5vaPj2nQ8/oIsy5Nn3i7kU8n/oVSSiGHaWJv9AiKGnWnzVW3N2iBtvjhQXfxqxeecnhgP6h2ZU8nhcAbe+773h6uPC2h5ADudTo1ff9113SaTyZ5MJmnP4OC4z9fZbbfr06v54Yce3LHvqb1hHBeAVoA8OtASv6HPH58nm83i7uy8UcjlJgrZ7P/WfUWG4emqLWEiInr6qcqZAu90OMI9nV13EE2vw41NToTV2vq/FBzH+be8bWt4obZdzW7Pr6XN5Spu3nyRRRAK9Ps9g+Ntbe269ap8cveuvb947OdhHBeAVoJCB1paqNAREZHN6bq6vafnwvipk8+X8vnn570Sw/DUu2Y73fLeIP3wkTBlMjPXq47PmYzFdqQy6RAto/gctZsnZ9LpNDHEuVxtDrWuuRDE50ArQ6EDLS1a6M5wWNvaLu/YuClANrszNX56VDSZbUWTySqbTGY67/x+IpqO45mKzWxoYFk20NXhjTidzs1ErRGf02zbrlZIC2gU2nZBq0OhAy3VW+hmYVj2LWSz98kMY6Jc9lB1oCrDMH6+rT3S4fHcQrTy4nOMSgtoFOJzYLnAZhRoObIknaBc9kSNj3i7zRY6E+1DoigmJ2LRyGJtu7SkRXyO3mkBjUJ8Diw3KHSwLJjN5mCX1xdWjgtMxmI70tlMWMvjAovROj5Hj7SARiA+B5YrFDpoZNmYMgAACG1JREFUaYvF5xhB77ZdSpEzsuDdd9+/3vfC88+HsQ4HyxEKHbSk6vgctdt2LYXR8Tm9vb0+LY4jLATxObASoNCBZliWvZCIiOO4cxqZgVW37aonPkdLrRSfo6QFaD27Q3wOrCTYdQma6eD5Jzxu/qZsNntoLDrZv9j31YjPUVt3d0/wzi9/NdKKm0KI1D+OEIvFkg/c//3IK6+8HFbrmgBGw4wONMOxXF3FQYP4nKY5HM7ARz/28cjlV1y52agx1GOhtIBGIT4HVioUOjDSnPicVmjbpXd8TrOq0wIa7YaC+BxY6VDowBDVbbu0jM+phxHxOUrbrMuvuGK7GoVVmdHV+zjz6JEjo4jPgdUAhQ50ZUR8zmK6u3uCt3/iU2G9jgtUr4M99+yzdO3brw+otQ6oFLn5Nqwo90fbLlgtUOhAF8spPkdLlfE1Wt+/t7fXl8lk8izLMspuTcTnwGqEQgeaM1ssa85e33eMaFbbrrBR4+E4zv/OG26859YP3/Y+ve5ZGV/DMAwf2HbtgJptw+ajnLf77ZO7nnrs5z+/C8cFYDVCoQPNmM2mLiIii9ncSWR8fA7R3LZdWqcFVLfN0rpt2GL3B1iNcI4OVFcdnyNK5czxEye2tGp8jlrb86tVts1qNr5nKRCfAzANMzpQTXV8jiRJAsuyViFfGDaqyNUTn9Ps9vz53HTjzdujk5MjW7Zs3a7nOiDicwBmw4wO1MDbbbaQ0rZLWYdzOV03tLtcV9TbGUVNzcTntEpaQKMQnwNQG2Z00JSF4nNcDud1Roypz+8PhT73hfBSH0W2QlpAI2KxWDJy7z3h0ZERww7aA7QyFDpYkur4nFZp26VmfE6t7fmtBvE5AItDoYNGzWnbtZLjc5Tt+a02u0N8DkD9UOigbu1tbTs8bvd7TJypjag14nP0atvVKo8z0bYLoHEodFAvnmVYJ8OwbCabHZqIRT8iy/KLRg3GqPic6ceZ2hxHWAjicwCWDoUO6pVIpJLvT6SSvNViCa7p7vnviVg0rPcjy1aIz5l9HMFq0TrtG/E5AM1BoYNGJYRiMXJy7PSA0+EIe938kB6bUFoxPkfr7iqIzwFQBwodLFUim8uFcvl8v5f3RIql0ohyrEDNmyjrcHq2zWqUUuTUKnhKfA/adgGoA4UOmiLL8lA0PhXgOG57t9e3M5lJ75xp2Mww0/9+sQy3lGvrHZ/TrOm076UfR0B8DoA2UOhAFeVyeedYdHLQbrOFenydQ5PxqTDJsnjms1Qj1zIiPmdqamqso6Ojp9nrKOt1sVgs2cgMFPE5ANpBCzBQHcMwfo+bv9/d1hZgWdaay+cPn54YP7eO3y25bddSxWLRaGDrVp/b7aZsNksHhw6pev3FjiOgbReA9lDoQBMsywbOWrd+DxFRKpN5djIWvXKh7+sdX5PP5wv+vvXyxo0b7UREzx04kIzHExan06nJDsrqGR7icwD0g0IHmmIYxr/QBhWvz3frpz/9mW/puQ5nsZiTl1x8sdtkMtHw8HDulVcPl3ie17zA5nK5giSVpe/eF/kXrMMB6AdrdKCp+YpcZXzOiRNvjOsxlkwmHd0W2OqzWm1uQSjQ7t27o27e4+N5Xo/b0/59Tz2Ltl0A+sOMDnTFMAx/yWWXhe+44/N3VH+mVXutRCKR3HLN1W63202iKNK+/fuiZrNVtzZeR48cGf3OPd8OYh0OwBgodKCbeuJztEgL6PR5C5s2bbIdPny4MDJ6XNZqHa4a4nMAWgMKHWhuKfE5jW7PbzWIzwFoHSh0oBk12nYZnRbQKLTtAmg9KHSgOi3ic1p9hof4HIDWhUIHqtIyPkevtIBGID4HoPWh0IEq9IzP0SotoFGIzwFYHlDooCkcx/m3vG1rWM+2XQqjCt6Tu3ft/cVjPw/juADA8oBCB0vSKvE5mUwmLwhCUY8xID4HYHlCoYOGtWJ8jpabVRCfA7C8odBB3Srbdhk9lvmofRzhZz/9ya9+/cTjIbTtAli+UOhgUUbE5zSr2Rke4nMAVg4UOliQ3vE5bnc7JZMN5bTOazotQJIbOY6A+ByAlQeFDmrieX77Zz77uYhe63Budzvxbndy3bp17hdfHBovS9SdzeZUuXa9uzPRtgtgZUJMD8zCcZz/w3/5VwN6rcNZrVayWszRCy+4wEdEZ2aNLCeKJdXuoRS5+Qrek7t37UV8DsDKhRkdENHC8Tla4DiOrBZT8pJLLp15JHr48KvRYkn0qfXospZMJp0ThGLJ6/W6EZ8DsDqg0AERTUfofP2fvnmvHvdyOOz5DWefxbjdvI2IKJlMFIZfPybncnldWnvFp6ZSD/3gge+/+OKhL+lxPwAwFgodzND6saXb3U4Wsym6adO5M9v/Dxx4LiqWZV+5XNbilnOgbRfA6oNCB3MsJT9uMW53e+HCCy6YCVP905/+FM3lCz5BENS6xYIQnwOweqHQwbzqSQRvhNvdXhAK+ZjVZl+r5TpcJcTnAAAKHSxoOR4WJ0J8DgC8CYUO6rIc2n8pHn7owR37ntobxnEBACBCoYMGtWJDZwXicwCgFhQ6aJgS0fOlr3ztLqPHQoT4HABYGAodLBnHcf6b3nVz5AMfvPUWo8bwzW98/W7E5wDAQlDooGkOhzPw0Y99PHL5FVdu1uueiM8BgHqh0IFq1D6OUAvicwCgUSh0oCqtembGYrFk5N57wqMjIxE1rwsAKx8KHWhCzeMIiM8BgGag0IGmmsm1Q3wOAKgBhQ500UhSOeJzAEBNKHSgG47j/FvetjU8XzsxtO0CAC2g0IHuah1HQHwOAACsON3dPcF3/8UtOy0WS7/RYwEAAAAAAAAAAAAAAAAAAAAAAAAAAAAAAAAAAAAAAAAAAAAAAAAAAABV/D/q0TB76kQaHAAAAABJRU5ErkJggg==;" parent="1" vertex="1">
          <mxGeometry y="250" width="543.61" height="428" as="geometry" />
        </mxCell>
        <mxCell id="Rqz7mpYMq3LJf2_j5biJ-7" value="" style="shape=image;verticalLabelPosition=bottom;labelBackgroundColor=#ffffff;verticalAlign=top;aspect=fixed;imageAspect=0;image=http://cdn.onlinewebfonts.com/svg/img_485475.png;" parent="1" vertex="1">
          <mxGeometry x="660" y="370" width="89.83" height="90" as="geometry" />
        </mxCell>
        <mxCell id="mUUMDVEmyQ42DfhIIiiI-5" value="Wi-Fi" style="endArrow=classic;startArrow=classic;html=1;rounded=0;curved=1;exitX=0.368;exitY=0.701;exitDx=0;exitDy=0;exitPerimeter=0;entryX=0.754;entryY=0.421;entryDx=0;entryDy=0;entryPerimeter=0;strokeColor=#A8201A;dashed=1;fontColor=#A8201A;" parent="1" source="Rqz7mpYMq3LJf2_j5biJ-6" target="Rqz7mpYMq3LJf2_j5biJ-6" edge="1">
          <mxGeometry x="0.0341" y="-10" width="50" height="50" relative="1" as="geometry">
            <mxPoint x="220" y="460" as="sourcePoint" />
            <mxPoint x="270" y="410" as="targetPoint" />
            <Array as="points">
              <mxPoint x="240" y="410" />
              <mxPoint x="370" y="410" />
            </Array>
            <mxPoint as="offset" />
          </mxGeometry>
        </mxCell>
        <mxCell id="mUUMDVEmyQ42DfhIIiiI-6" value="" style="endArrow=classic;startArrow=classic;html=1;rounded=0;curved=1;exitX=0.497;exitY=0.607;exitDx=0;exitDy=0;exitPerimeter=0;strokeColor=#A8201A;dashed=1;" parent="1" source="Rqz7mpYMq3LJf2_j5biJ-6" edge="1">
          <mxGeometry width="50" height="50" relative="1" as="geometry">
            <mxPoint x="210.04848000000015" y="560.028" as="sourcePoint" />
            <mxPoint x="410" y="430" as="targetPoint" />
            <Array as="points">
              <mxPoint x="270" y="420" />
              <mxPoint x="370" y="420" />
            </Array>
          </mxGeometry>
        </mxCell>
        <mxCell id="mUUMDVEmyQ42DfhIIiiI-7" value="" style="endArrow=classic;startArrow=classic;html=1;rounded=0;curved=1;exitX=0.625;exitY=0.514;exitDx=0;exitDy=0;exitPerimeter=0;strokeColor=#A8201A;dashed=1;" parent="1" source="Rqz7mpYMq3LJf2_j5biJ-6" edge="1">
          <mxGeometry width="50" height="50" relative="1" as="geometry">
            <mxPoint x="280.17417000000023" y="519.7959999999998" as="sourcePoint" />
            <mxPoint x="410" y="430" as="targetPoint" />
            <Array as="points">
              <mxPoint x="330" y="450" />
              <mxPoint x="340" y="430" />
              <mxPoint x="390" y="430" />
            </Array>
          </mxGeometry>
        </mxCell>
        <mxCell id="mUUMDVEmyQ42DfhIIiiI-8" value="" style="endArrow=classic;startArrow=classic;html=1;rounded=0;curved=1;exitX=0.423;exitY=0.14;exitDx=0;exitDy=0;exitPerimeter=0;strokeColor=#A8201A;dashed=1;" parent="1" source="Rqz7mpYMq3LJf2_j5biJ-6" edge="1">
          <mxGeometry width="50" height="50" relative="1" as="geometry">
            <mxPoint x="290.17417000000023" y="529.7959999999998" as="sourcePoint" />
            <mxPoint x="410" y="430" as="targetPoint" />
            <Array as="points">
              <mxPoint x="340" y="290" />
            </Array>
          </mxGeometry>
        </mxCell>
        <mxCell id="mUUMDVEmyQ42DfhIIiiI-11" value="&lt;div style=&quot;font-size: 13px;&quot;&gt;Base&lt;/div&gt;&lt;div style=&quot;font-size: 13px;&quot;&gt;Station&lt;br style=&quot;font-size: 13px;&quot;&gt;&lt;/div&gt;" style="text;html=1;strokeColor=#d6b656;fillColor=#FAE5C7;align=center;verticalAlign=middle;whiteSpace=wrap;rounded=0;fontStyle=1;fontColor=#A8201A;fontSize=13;" parent="1" vertex="1">
          <mxGeometry x="390" y="460" width="50" height="40" as="geometry" />
        </mxCell>
        <mxCell id="mUUMDVEmyQ42DfhIIiiI-12" value="Power Grid" style="text;html=1;strokeColor=#d6b656;fillColor=#FAE5C7;align=center;verticalAlign=middle;whiteSpace=wrap;rounded=0;fontStyle=1;" parent="1" vertex="1">
          <mxGeometry x="440" y="260" width="70" height="80" as="geometry" />
        </mxCell>
        <mxCell id="mUUMDVEmyQ42DfhIIiiI-13" value="" style="endArrow=classic;startArrow=classic;html=1;rounded=0;curved=1;entryX=0.828;entryY=0.514;entryDx=0;entryDy=0;entryPerimeter=0;strokeColor=#A8201A;dashed=1;" parent="1" target="Rqz7mpYMq3LJf2_j5biJ-6" edge="1">
          <mxGeometry width="50" height="50" relative="1" as="geometry">
            <mxPoint x="660" y="420" as="sourcePoint" />
            <mxPoint x="419.88194" y="440.1880000000001" as="targetPoint" />
            <Array as="points">
              <mxPoint x="560" y="410" />
            </Array>
          </mxGeometry>
        </mxCell>
        <mxCell id="8znKrHV6_2cXsewEA_Kl-1" value="Wi-Fi" style="edgeLabel;html=1;align=center;verticalAlign=middle;resizable=0;points=[];fontColor=#A8201A;" parent="mUUMDVEmyQ42DfhIIiiI-13" vertex="1" connectable="0">
          <mxGeometry x="0.0124" y="13" relative="1" as="geometry">
            <mxPoint as="offset" />
          </mxGeometry>
        </mxCell>
        <mxCell id="mUUMDVEmyQ42DfhIIiiI-14" value="" style="shape=image;verticalLabelPosition=bottom;labelBackgroundColor=#ffffff;verticalAlign=top;aspect=fixed;imageAspect=0;image=https://icon-library.com/images/notebook-icon-png/notebook-icon-png-23.jpg;" parent="1" vertex="1">
          <mxGeometry x="902.25" y="372.5" width="137.5" height="137.5" as="geometry" />
        </mxCell>
        <mxCell id="mUUMDVEmyQ42DfhIIiiI-15" value="" style="endArrow=classic;startArrow=classic;html=1;rounded=0;curved=1;strokeColor=#A8201A;dashed=1;" parent="1" edge="1">
          <mxGeometry width="50" height="50" relative="1" as="geometry">
            <mxPoint x="900" y="420" as="sourcePoint" />
            <mxPoint x="760" y="420" as="targetPoint" />
            <Array as="points" />
          </mxGeometry>
        </mxCell>
        <mxCell id="8znKrHV6_2cXsewEA_Kl-3" value="IP Communication" style="edgeLabel;html=1;align=center;verticalAlign=middle;resizable=0;points=[];fontColor=#A8201A;" parent="mUUMDVEmyQ42DfhIIiiI-15" vertex="1" connectable="0">
          <mxGeometry x="0.1786" y="1" relative="1" as="geometry">
            <mxPoint x="13" as="offset" />
          </mxGeometry>
        </mxCell>
        <mxCell id="mUUMDVEmyQ42DfhIIiiI-16" value="Wi-Fi Router" style="text;html=1;strokeColor=#d6b656;fillColor=#FAE5C7;align=center;verticalAlign=middle;whiteSpace=wrap;rounded=0;fontStyle=1;" parent="1" vertex="1">
          <mxGeometry x="649.92" y="460" width="110" height="30" as="geometry" />
        </mxCell>
        <mxCell id="mUUMDVEmyQ42DfhIIiiI-18" value="Remote Server" style="text;html=1;strokeColor=#d6b656;fillColor=#FAE5C7;align=center;verticalAlign=middle;whiteSpace=wrap;rounded=0;fontStyle=1;" parent="1" vertex="1">
          <mxGeometry x="916" y="460" width="110" height="30" as="geometry" />
        </mxCell>
        <mxCell id="3OxzppuphTpGOnuYUp2q-1" value="&lt;div style=&quot;font-size: 11px;&quot;&gt;Local&lt;/div&gt;&lt;div style=&quot;font-size: 11px;&quot;&gt;System&lt;br style=&quot;font-size: 11px;&quot;&gt;&lt;/div&gt;" style="text;html=1;strokeColor=#d6b656;fillColor=#FAE5C7;align=center;verticalAlign=middle;whiteSpace=wrap;rounded=0;fontStyle=1;fontSize=11;" parent="1" vertex="1">
          <mxGeometry x="310" y="510" width="50" height="40" as="geometry" />
        </mxCell>
        <mxCell id="3OxzppuphTpGOnuYUp2q-2" value="&lt;div style=&quot;font-size: 11px;&quot;&gt;Local&lt;/div&gt;&lt;div style=&quot;font-size: 11px;&quot;&gt;System&lt;br style=&quot;font-size: 11px;&quot;&gt;&lt;/div&gt;" style="text;html=1;strokeColor=#d6b656;fillColor=#FAE5C7;align=center;verticalAlign=middle;whiteSpace=wrap;rounded=0;fontStyle=1;fontSize=11;" parent="1" vertex="1">
          <mxGeometry x="240" y="550" width="50" height="40" as="geometry" />
        </mxCell>
        <mxCell id="3OxzppuphTpGOnuYUp2q-3" value="&lt;div style=&quot;font-size: 11px;&quot;&gt;Local&lt;/div&gt;&lt;div style=&quot;font-size: 11px;&quot;&gt;System&lt;br style=&quot;font-size: 11px;&quot;&gt;&lt;/div&gt;" style="text;html=1;strokeColor=#d6b656;fillColor=#FAE5C7;align=center;verticalAlign=middle;whiteSpace=wrap;rounded=0;fontStyle=1;fontSize=11;" parent="1" vertex="1">
          <mxGeometry x="160" y="590" width="50" height="40" as="geometry" />
        </mxCell>
        <mxCell id="3OxzppuphTpGOnuYUp2q-4" value="&lt;div style=&quot;font-size: 11px;&quot;&gt;Local&lt;/div&gt;&lt;div style=&quot;font-size: 11px;&quot;&gt;System&lt;br style=&quot;font-size: 11px;&quot;&gt;&lt;/div&gt;" style="text;html=1;strokeColor=#d6b656;fillColor=#FAE5C7;align=center;verticalAlign=middle;whiteSpace=wrap;rounded=0;fontStyle=1;fontSize=11;" parent="1" vertex="1">
          <mxGeometry x="170" y="340" width="50" height="40" as="geometry" />
        </mxCell>
        <mxCell id="mUUMDVEmyQ42DfhIIiiI-9" value="" style="endArrow=classic;startArrow=classic;html=1;rounded=0;curved=1;exitX=0.276;exitY=0.234;exitDx=0;exitDy=0;exitPerimeter=0;strokeColor=#A8201A;dashed=1;" parent="1" source="Rqz7mpYMq3LJf2_j5biJ-6" edge="1">
          <mxGeometry width="50" height="50" relative="1" as="geometry">
            <mxPoint x="239.94703000000004" y="319.91999999999996" as="sourcePoint" />
            <mxPoint x="410" y="430" as="targetPoint" />
            <Array as="points">
              <mxPoint x="320" y="310" />
            </Array>
          </mxGeometry>
        </mxCell>
        <mxCell id="3OxzppuphTpGOnuYUp2q-5" value="&lt;div style=&quot;font-size: 11px;&quot;&gt;Local&lt;/div&gt;&lt;div style=&quot;font-size: 11px;&quot;&gt;System&lt;br style=&quot;font-size: 11px;&quot;&gt;&lt;/div&gt;" style="text;html=1;strokeColor=#d6b656;fillColor=#FAE5C7;align=center;verticalAlign=middle;whiteSpace=wrap;rounded=0;fontStyle=1;fontSize=11;" parent="1" vertex="1">
          <mxGeometry x="100" y="380" width="50" height="40" as="geometry" />
        </mxCell>
        <mxCell id="mUUMDVEmyQ42DfhIIiiI-10" value="" style="endArrow=classic;startArrow=classic;html=1;rounded=0;curved=1;exitX=0.147;exitY=0.35;exitDx=0;exitDy=0;exitPerimeter=0;strokeColor=#A8201A;dashed=1;" parent="1" source="Rqz7mpYMq3LJf2_j5biJ-6" edge="1">
          <mxGeometry width="50" height="50" relative="1" as="geometry">
            <mxPoint x="160.03636000000006" y="360.15200000000004" as="sourcePoint" />
            <mxPoint x="410" y="430" as="targetPoint" />
            <Array as="points">
              <mxPoint x="310" y="330" />
            </Array>
          </mxGeometry>
        </mxCell>
        <mxCell id="3OxzppuphTpGOnuYUp2q-6" value="&lt;div style=&quot;font-size: 11px;&quot;&gt;Local&lt;/div&gt;&lt;div style=&quot;font-size: 11px;&quot;&gt;System&lt;br style=&quot;font-size: 11px;&quot;&gt;&lt;/div&gt;" style="text;html=1;strokeColor=#d6b656;fillColor=#FAE5C7;align=center;verticalAlign=middle;whiteSpace=wrap;rounded=0;fontStyle=1;fontSize=11;" parent="1" vertex="1">
          <mxGeometry x="20" y="421.25" width="50" height="40" as="geometry" />
        </mxCell>
      </root>
    </mxGraphModel>
  </diagram>
  <diagram name="Star-topology" id="RIon_8eI2Yte2K_3fN_8">
    <mxGraphModel dx="1125" dy="637" grid="1" gridSize="10" guides="1" tooltips="1" connect="1" arrows="1" fold="1" page="1" pageScale="1" pageWidth="850" pageHeight="1100" math="0" shadow="0">
      <root>
        <mxCell id="Wbm_XTljqpT1_rQzuZGX-0" />
        <mxCell id="Wbm_XTljqpT1_rQzuZGX-1" parent="Wbm_XTljqpT1_rQzuZGX-0" />
        <mxCell id="Wbm_XTljqpT1_rQzuZGX-2" value="" style="shape=image;verticalLabelPosition=bottom;labelBackgroundColor=#ffffff;verticalAlign=top;aspect=fixed;imageAspect=0;image=data:image/png,iVBORw0KGgoAAAANSUhEUgAAAboAAAFcCAYAAAC+6nsaAAAABHNCSVQICAgIfAhkiAAAIABJREFUeJzsnXd4W+X5/u/3nKO9LQ95ywkJhABx2GXFUEZoaTFtoVBoY6BQSumvgi7oAFGg5dtvC6ZAoZSCwyh0UQfSb4GOOAQoq8RhhoQkthNvybJs7XHO7w9bjizLW+PYfj7XlQtLOuP1haVb7/u8z30DBEEQBEEQBEEQBEEQBEEQBEEQBEEQBEEQBEEQBEEQBEEQBEEQBEEQBLF44fM9AIIgCCJvMABcvgdBEARBEJmGFRcXX/jY40/uf+KJJw+Ul1dcBcAAmvwQBEEQCxymVmuOu+kHP3xle+s7UvK/226/4x2DwfBpABqMzPQWDaTeBEEQSwDGmPWss87+xR/++KeHVq8+ojL19ZUrDy25/Iorv9Tb03vIrl27dkiS5Acg5mGoGWdRqTZBEAQxAW716tXfveuuxh8Wl5QYZnLCwMBA8MYbv/fAm2+88VMAXgCx7A4xu5DQEQRBLE6Y0Wg60+m8tfH0M844fC4X2PXRR/3XXXftDf39/ZsALNgZHgkdQRDEIkMQhOVXXvnVe6/5+rXnZuJ6zz777Dt33H7b1ZFIuBVABICUievmChI6giCIRQJjzHr8CSd8+8EHH7opG9e/4Ybrf7u1peV/RTHeDiCKBSJ4JHQEQRALH2a326+6/fY7bl59xJHl2byR2+0OXPeNa3+6c+eH92JkOTOezftlAhI6giCIhQtTqzXHXn/DDY0XXfTFk3J541deeXmv85abf+xyuZ6DzOt3JHQEQRALEMaY9QtfuPBXP/jhj76Uz3E89tjGV++/774b5Fy/4wEUYKRBUIGRKajsBkkQBEGMwa1evfp7jz/+5F/Wn/upY/M9mDVrais///kvXLp///6KjvaOnZIk+SCz2R3DiMilIwyZDZYgCGIJw4xG05n33f/rR4488siKfA8mHbt37XLdfPOPG+VWv2NI744ii8ERBEEQI+0C3/3e9x/LdR1urmze/Ny79zTe/TOXy9UMIIQ8rxQmRE5K+kezOIJYAjDG7AqFol4UxdZ8j4VID2Os4IQTT/zxs89u/lM62y65snLloSVf+cqGzwcDobXvvvvuG6PLmXmbQNFmFIJYepj1Wt3t1gLLVwReMITC4fbuvt4GURRb8j0wYhzs2m9ct/nqq6/+lLRAd05wHIPFYkF1VeVKSZJ2520c+boxQRC5h+f5+nJbaWtJUdE3OMbxkUikV61SVddUVm2xGE3NjDF7vsdIjMHt3PnhXqPRCKVSme+xzBq9Xofqqiq89p/XejiOm5MFWaYgoSOIJQBjrLbQUtBir6j8q1qlqvb7/TvaOw98en93l62rt+fWWCzmLbBYzl9WVb1Po1Y7AZjzPWYCjOM4AWDQaDQwGg0QBCHfY5oWtVqFsrJS2EpKwPM8eJ7jOcZM+RwTCR1BLG7MRr2haVlV9XaT0bguFot5O7o6L+9x9dcmliqDoZCzo6uztt/t3ggAZSW2W6rLK9oUCkVDPgdOAAxsrLzEGAedTgedTgeOk1/VieMYiosLUVFeDq0maTM/4xhGymR5GzQJHUEsUjRqtbO6vKKtyGrdAAA9/X33tHcesEej0abUYyVJahvyDTfs299xut/v3yEIgqmqrPzRQktBC8dxdTkeOjEFgiDAYDBCo1EnyWB+MZtNqK6qgtFgHPf8KW++g70KlXr0oSr3IxuBhI4gFhkcx9WV20rbykpstwiCYPIODW3d29Fe4w8EHAAGpzpXFMWWHld/bUdX5+WxWMxrMhrX1VRWbTHqDU2g5UxZoVSqMFK/U+RtDDqdFtXVlSi0WsHzPERJQih+cOP+y8cdhWXRcGj04WQ921mHhI4gFgmMMXuhpaClprJqi1qlqg6Fw+379nec7vIM1EmS1Daba0Wj0ab2zgP2rt6eWwGgyGrdUF1e0TZavyNkA4NGo4Ver8tp/U4QBJSVlaJPpUVXODr2PMcY1PyUspKXOSgJHUEsfMw6rbZxWVX1vkQd7kB31/WdPd32ebYMDAZDIefejvYa79DQVkEQTGUltlvKbaVttJwpL3heGK3fabNav+M4Bqu1APbqKmg1GqyxGFGt02btfpmChI4gFjAqpdJRXV7RZisq/hYA9LvdG9s7D9jDkUhjpu4hSVKbyzNQt29/x+mhcLg90Y5QaClooXYEeSEIChgMRqhUqozX7xLtAh3SwpONhTdigiDAcVydrbCotaK07O6kOtzaId9wA6apw80VURRbOnu67Yl2BJPRuG5ZVfU+nVbbCKrfyQq1Wg2DwZCR+t0BMHgNprF2gTUW4/QnyQwSOoJYQDDG7BajqbmmsmqLTqdbEwqH29sO7L9gtA6XEyuvYCjkbO88YE+0I9iKir9F7Qjy4OtXfxUP/fp+ACPtCBqNFjrd7Op3bwfDaOj3QhAEFBcXom55DY4ptmZryDmBhI4gFgZmjVrtXFZVva/AYjk/Fot5u3p7bu3s6bbH4/HmPIxnMNGOkKjfVZWVP2orLGql+l3mWLu29tCZHvvL//kZ/v3SNvzyV7+C29U/9rwgjNTvtFrNjOp3x+rUaF5RhcqK8gntAgsVEjqCkDkKhaKhuryirazEdgswUofr6OqsDYZCzjwPDaIotrg8A3UdXZ2Xh8Lhdp1OtybRjkD1u/lTUGA1zOQ4t6sfjz/1+7HHf/njHycco1AoYTAYoFKNb2dri8bQFo0BGGkXqKysGGsXWCyQ0BGETOE4rq7QUtBSVVb+aKIOt29/x+lDvuGG2bYLZJtoNNrU2dNdm9yOUFVW3krtCLnhRz+4CcFQZOzxK6++PMmRDGq1Gk/7w/j9cAAAYFcIWKnToqysFKU2GxRCVvvy8mJPTUJHEDKDMWY36g1NNZVVW5Jtu1yegTqZJwyMtSMMeDybktsReJ6vz/fgFiv/eXkb/v3SNgDAKScej5IiK1576+1xy5epfK2sGF+vKIVOp4PVWoCqyorxtl3ZIZztG0wGCR1ByAiNWu2sKitvTdh2dfX23DqZbZdckSSpzTPkrU9uR7BXVP51tB2hNt/jW2z88pe/SPr5bpx60skAxi9f7g6EsDsQmnDuSP0uZ31wwVzdKBUSOoKQAaPxOWO2XQMez6a9He01o3W4rLQLZJtEO8KB7q7rk9oRtlM7QuZ46Nf3490PdwIALv/yZVh7zNFouPxyAMCL/3hx7LgVWjVWaNVpr5FD8paqR0JHEHkkXXzOvv0dp3uGvPVyq8PNlXAk0piuHUGlVDryPbaFjNvVj8d//yQAoKSoELf+5CcAgLPXr4fxoUfhLSrErp0f5nOIAICS4uK8mTknIKEjFgSMMQvHcWUcz1dxglDD8XxFvsc0TybE5xzo7ro+OT5nkTE45Btu2NvRvjbRjlBRWnY3tSPMnXvvaUSfyw0AuOaqq3B/rwc/bv0AAPD5bf9Cx0sv47lN+eg8Gc+y5cvy7hFGQkfIF8b0CqXyUJVaXatQqaowYmrEGMBpzZa1ttVHfrdo1eHf5tXqo/M91NmQsO1Kjc/JpG2XXJEkqdXlGahrO7D/guR2BEo3nx27dn6Ip/70ZwBA7RGH44c33wzbtn/h3rqT8LWrrsJZZ54FAPjXln/nc5gAAK1Wm/c+BfnH1RJLEZ7j+RJIEqKRyB4AsdQDfG7XHp/b9RwAvdZW+lntEUde5X6p5X4pEnkv98OdGRzH1ZUWlzSpVapqAPAODW11D3pk1yqQC+LxeHNnT3eLRq12FFsLHQUWy/kFFsv5Xb09twZDoUYs0Lpkrrjj9p/AtnoVAOD22+9AT3c37vz5zxEIhfHo40+gu7sLh9TY8fG+Nuza+SFWHrYqb2MNBALx0R8ZqL2AIAAACsaYWYzHe0VR7EIakUvBF+jp/r3rX//4vurc825CWXlDDsY4KzIZn7PIGEykmw94PJuAkXTzcltpK9mJTc7zm5/Da2+9jZ73P8Qph6zA2evX4waHA739LgDA+jPPwLOb/4bzPvUpAMj78uXePXsDoz9S8CpBYOQbn1KSJDeAeMprasZxxRzPV/CCsIwxVjjuVUkaCm165lKsWVsnI7GbEJ+TsO1apHW4OZHcjuD3+3eoVarqRLr5Em9HGPceeNU7jE0uD+6482cAAK1ahbsaR1a79+zZM/KcRo3rrvsmAOCSL10KIP/Ll719fYn+OQpeJQgAPAB/ynMqjuPLOJ4vhCTFxHj8gCSKYaVOf7hl+SHXKgyGM8Yd/ffNDViztg56fV2uBp2OhG1XanyOHGy75Eq6dPNlVdXbl3C6ufTkk0+ONcOdZDLg4989OLYB5eorr4SttBQA8Ppbb+EL9Z9FIBjCefUX4Ke33Ya1xxyNQ2rs2NPWgf+8vC0vv0AaKHiVWPKkzuJUAARRjHeJ8fgBSZIGAEAUxc6wb/glz56Pfy3GYn7huBPvBGMHPwif/5sDX77cmbthHyQRn5Ns25Xt+JzFRiLdvKe/7x7gYLr5UmxHeP/99x5PNHon+1keUmPHz3/5y3HHbnvlVQDALT+4CT/48Y8BAJdecgkA4C9/+VOORixPSOgIOZFaqI5j4gxv/AHB4Ouxt16/Eyed6jx4FWkQm55pyuUSphzicxYZg/5AwJGcbl5RWnb3Uks3F0WxN9Hofe89jWN+lp/59KfHHXfHT36C4eFhbG7+K354881jz1951VUAgNfffCtHI5YnJHREXuB5fn25rbRNp9U2pqvDMMZqVErldTOq0UjSIN56vQmHrDj4jb+rswnnf64hk2OeBHPCtislPqc2T/E5i4pEunmiHWEJppuLiR8OO/SwsSfvvu9+HH/sMXj69yMzvA8+/ABb/vVvnL1+/biTbaWlOPmE49Hncs96+TJvNiZZgISOyAscx9kEnjcXWgoallVVby+3lbYZdLqHjHr9I+W20rZlVdV7K0rL7l5WVb3dVljUqlIqHVN+sIXDrSgpHf/6qy+3QKXK2mYGhULRUG4rbU3YdqXE59AyZQYZbUeYkG4+mo6wmOt3Y5/RF1/2Zdz6ox+huHAkBLX1vQ/wlSuuxPHHHoPPfOazWHtM+nbSMz/5SQCzX77MSzEtSyym34VYQCgUigaT3tDg8gzUKRSKBr1GW19gsZwPAKIoRjmOS5sVMuDxbPIFA83RaLQZqWKiUtVCp7djwD0yk9Lr62A02dHV2ZTJsXMcV1dgMjtNRuM6APD7/Tv6BtwO2kmZGxhjdoNO70w03MdiMW9XX69jIRlfzxSO40o+3rOvJ/X5h359Px7//ZNjG1OAkbrdpZdcMm7pEgB6urtRVbMMxYVWbHv51Qn3MJkMEAQFOJYdOXjxH/90XXzRF74TjcWexch7NueTRZrREXknGo0+5hny1g8ND78CAMkiJ4piJPnYAovl/Kqy8keryyvajHpD07j4l3C4FZVVB2dwfn8riortGRyqOV18ziK27ZIlkiS1pUs3L7QUtCy2+p1SqVy25+OPh1Kfv/rab2Dby6/i2//v/2G5vQoA8PG+Ntz605+hsrISd4z6XgLjly+f3/xc2vtkS+T27N0b+tU997wrAVHkcTU079YsxNKE5/latVJVGwgFmzD6BgiGQm+HI5GwIAilgiCYAYAxlvgblURRjCYecxyn5nneajYaL/QF/O9LkrQLAOD3AZFI2+g5IdhK69Db0zLf8WrUamd5ie1pg15/AjASn+PyDFwsiuJr8702MTckSWoLhIJNvoC/XafRnq7VaA61mEwN8Xi8JhKNtmIRLB/HYjE8/fRTHw8P+Spr164pUqlU4yYnxxx3PC697CtYYbejc38H+lwu+AMBbN32Mh76zW/Q09mJI486Cl6PB1u3vYxIKIjzPvNZvOodxtu+AA7TaqBWqzKeJj7g8cRuvsW569sOx9aOjvbt0Wj0bwB6kCexo6VLIi8kLV2ejpG/QzH5dZ7n63Uabb3FZKoXBMGUeF4UxTDHceMcFvZ2tNeMOYwcssKBj3cf9Ixcs9aJHdudcx0nz/P1tqLixoRt14DHs2lweMixxB1N5IhZo1Y7ykpstwAjy5l9blfjIuhbVDHGyjmOW2M2W051XP/tCy699Ev2yQ5+fvNzePh3D49F9wAjjeVfvPBCPPr4E9ColWhtfXfcOSaTAUqFMmMDfqTpse67/vd/trtc/Xsikch/o7HYH5HHLDqAZnREnkia0T2Gkb/DhNBxAARJkj4IRyLN3uGhB30B/0fxWJxpNJrDGGNj/qx+v39Hn9v1P7F4/HkAAGNmqNV2DA+PbOdXqWpRWHTYXGZ0o/E5T9uKir8vCII5FA637+/uuiAYCt2JRTBTWISEYrFYy+CQdyPHuLVajeZQg15fp9VoLg8Eg22SJO2c/hKyJA5gWJKk3lAoeGDbtq07X3jh+WBFRaWturp6QirAISsPxUUXX4Jja2sxNOjBvvYORGNxtL7zDmyrV0FdUABNNIojjlozdk6mZnT/+te/PVdffdUbf3jqyde83qH/hiORrfF4/DkAkWlPzjI0oyPyQtKM7gzGmFaSJN/oS4wxZkk0hyfDGLOrVaorYvH43rSbUcrKG9Db04J4vG3s8ZC3DT5fyyyGZtZptc6Eo0ksFvP29Pc5l0KywGJiERpoMwBKAFaO4w5XCIq1J59y6lk333LLKVVVVZNaa+3a+SHuvuuX+PdLB1sLzjjtVDzw0MNjj+c7o9uzd2/I6bz1wy3//MeH4Uj4g2gs9rYoirskSeoEMDHWPA/QjI7IC0kzukc5jjNLkjTWGM5xnEmSpBBSljMBDMZisS2iKLYi9Q3EmBnLlq9Hd9fB3rVT1jnwwXszFiiVUumosJU2Gw2GdcBIfE7/gLs+Ho+3zP43JPKJJEltwz5fYyAY8Go1mk+M1O/Mjkg0YolGo69BJh/AsyQOwC9JUp8oih0dHe27m//6zIFBr9ey5qijClPrd7sDITCTBV/53Odwzplnwuf1YP+B/Ths5Uqcvf7csePmOqMb8Hhiv7jrrrYf3Hjjf957d8db4XD4lWgs1iKK4nsA+jGyAUUW0IyOyAvJ7QWMMaskSUEACZdzXqFUroxGIjOPRz75tEa89krj2GyO5+04+1wn/r65YbpTF+G3f2I8ZqPe0LjI2hF4ADqO41abjaZb1h59zDkXX3oZPnnG6bO+0FxmdM/8tbn/5/9z5zsdbfv2hqPRd2Ox2JuiKO7FyCpLXndYpoOEjsgLyUKHEWE7JBqJfJR4nTFmUut0RwR9vv9ium/fJ5/WiLdeb0I4fNBq6+LLmvGnpxxjwpcGxpjdarY0JfrhQuFwe09/n4McTRYnjLFaq9nSuFj6H1VK5fW2ouJbEpu1Boe8/zj6zHP0FzVsOOqThx+um+l1ZiN0/337bd9tt93+/puvvfp+OBL9KBaPvSuK4k5Jknow8j6VlcAlIKEj8kKK0IHj+XIGcPF4fH/SYSqD1XpWJBTyhP3+VyZcpKx8JKngxb87xwlagbUelVW1U+y2XKw79IgZoFAoGoqthc6FupN2khWIqyVJ8iXqd2etX3/ebT/5ySdMJnNa44VkZiJ0Ax5P7Gc/u/Pjp554fEckGt0biUbeFEXxvVGBC2CiIbusIKEj8kKq0AGAWqM5JhwK7UvdiMLxfLXOVrpOUip1EaVKF1Gr9fD7BrG/o2XcLA4Y2Wl5wYVOPP1EPdKgUCgayopLGhPfgvvd7o1DvmEHaCflUmOyLzuyTTdnjNnNBmNjwkEoFA63o7T02U5RGhj9UscB0DHGijmOW2k0Gk+66OJLzv/+975/5FTXnU7oGn91X8fDv3ngPZerf08kGt0ei8XelSRpHwAvpg9GJoili0KhaCi0FLSkPq/R6U9SqFRHzOmiBdZ6fP2bLeMie0ZJxOcsr7ZLy6vt0mJ00SBmTyJ1IvF3UW4rbRvntiMPzBq12pkYY3V5xeCox+dk8ACMjLEjFILw5arq6ofu+dX9nXv3tUvp/rkHBqThYd+Ef83Nzw6sXn3EPw16/W9VStV3OY47E0AZRuKzaJJEENMxmdABgEZvOLWwsmoDY8w6o4sxZsbJpzXi5NMm7LBkjNmNekNT8geZQqFomNfgiUVHui9Cckg3Hw3wHUyMy6g3NClMpvNmECycaEco5jjuRKVS+c0TTjjxuZat2wLTCV3rjneC9Rd8/m2TwfikWqX6Ic/z5zLGlgMwgGwjCWLmTCV0AMAYK7BW268sPGTldQqd7mQwZphwUIG1Huee14Rzz2tK88Y3a9RqZ+JDIulb8GJ2uifmiUqpdKQKC/LwN5PBFQgGQMMYq+F5/lyVUvW9S7502Ws73nk3mip07R37o9/53k0fm4zGP2g1mp8rBOHLjLEjABhBrWgEMXumE7okdCqz5VzzqtXfLfz8F58WVh3+fXzx0r/i5NMaUVbeAJ63p7t2ua20LfEhYTGampdIdhmRGcw6rbYx8fez/qJLfLlKN590BWL6Gdx08AAMjLEVPM9fYLUW3vXd79/0UULo7rn3112HH37Eizqt9lcKheJyxtixAIoxMiukZUqCmAuzELoZM2rb1ZL4kLAVFrVSHY6YB5zAC19IFp0s/j3lagVCAGBljB2rEIQNVVXVv/nc5y98xaDT/YbqcASRYTIsdObkb8HV5RWDVIcjMoiyrMT2YbZWCNKtQGis1oszMIubDIYRIStmjB3L8/xnOY77JNXhCCLDZErokr8FL6+2S1SHI7JFpv/WZLACkdiwYgCgBQkckUOWxHLBfIWO5/n65G/Bo7vk7BkbIEGkIUO7eNOvQKxZ60RZ+WyvRRALEoYl8M1qrkLHGLMnfwvOct2EINIy112RtAJBECMIWAKzOpVS9Z2iAuvLszhl3E646vKKwVzthCOIyUjX54Y0wpVuBUK//JDvYM1aZ84HTRB5hmEJCB1jzF5TWRWoqa6OzqQpN7W3SafVNoK+BRPyYcKXsIRzCa1AEMREGEb6XRa10HEcV5d440/1puc4ri5NHS7vbhUEkY5UUSsrse2ZsAJRVt6Au+9vy/dYCSKfKEBCt1D8BwkiLaNf0DqSBO9jxthRAIC772+jDSfEUiaxbMlh6QrdbM1rCUK2aDWa/62urBymjScEMUJC5GYzm9NyHGdTqtW1GoNxHS8Iyzmer8zeEDNHOqFLV9SndgFiEWA+4sSTnv/MZRvIzCCPLOqZwwIguZVASvrvZCm9Cl4QygRBsIiiFI3HogNgTABjAgMEjaXgCLXFUsmUKq3rg/cek0SxK+u/wRzgOK6uprJqCwAc6O663qDT1ydSn71DQ1sHvIPOhZr6TBDp4DiursBkdi6WdHOCmCkMB4WOS3qc/mDGTDzPVwFQT3thjiu1Hnv87brao51gzJSpAWeK5Bmd3OJzGGNmPo1RNEFkAlq5IIhJYIwZAehmex6n1Z7Errj6hXQO/3lknCuEnGoXq1Yd7rz7nvsGH3viKemY445rZGkCXAkiA1AtOsfQ0qX8UQEQAURTnucZY2ZBqSwVlMqCSDDYHY/FugD4xx3FmBnXXNeMB++rhyQN5mjMaeF5vt5WVNyoVqmqE8+1dx64JBaLPZ3PcZnN5vpv/r/rG1esXFmd/Lzb7fY23v0LZ3tb24RAV4KYL4wxu9lgbCywWM4HgFA43N7T3+eIx+PN+R7bYoOETv7wAOJJjxnHcUWMcRpRjHulUfHieL5SbTLXKguLlns/3vVnSRQPHLwCb8fV1zbhgXvrcjv00QEzVms1WxoT9YlgKLRHo1YvB4B9+ztOz1edQqlU1l70xUsazz5n/bqpjtu9a1f7L3/x84ZAwN+So6ERSwiO4+pKi0uaEl8AvUNDW92DHockSa35HttigYRO3nAYmc2NwRgzSpLkx3jxG4f60MO+HRoedqGrc+PYkwXWelRW1WLHdme2BpsGs1FvaCyyWjcAQCwW83b19Tri8XhbYjNKPoSOMWY++thjnd/61g3fms15f/rj05v+72+bHfF4vC1LQyOWMCql0mErKnYKgmACgJ7+vnv8gYATQF5XYhYDJHQLCwUmLmGmp6y8AaHQIAbcB5dBLr6sGX94siEXS5gatdpZbC10pHvTJu+6zLXQVdvtDsf133FardY5b9L52R233bpz54eNUp6XgolFyYQvhz39fc5wJELL5/OAz/cACACAutxW+rFKoayPxmMQRbENQCjpdTPP8+sFQTg+zWvpGR5uxcrDLkZfb+vY8V2dIVgstRgeztqSCMdxdWUlthaLyXw+x3Fq79DQ1q7entMj0ejTiXEwxuwWk6kBAAaHvBslSWrL1ngSaLW6uhtv+lHLFy784he1Wu20O1en4tTT1tUdccSRl3y0c+eg3++j5SUik4TCkUjz4JB3E8e4VVqN5lCjwbBepVBcEAiFdubivbIYoRmdPDAvr7Z7QuFwe2Kd3j3o+YsoikGecYZEsRoY+Ybn8Xqb/cFA87RFa8bMWH5IAz7effDb4LnnNeHvmxsy/QswxuxWs6UpUYcLhcPt3X29Delma7mc0fE8b//Up89rvPCii8+f/ujZ8+ILz2995i9/dlL9jsgGqRu4BjyeTYPDQw4SvNkh5HsAxEG6+3obJElq02o0jgKT+WKlUlkCQBQhxTgwAQAEQTAVWa0bimDdEAqH2weHvM2BYLApbeFakgah04/fIm8yZ3rLvNlkNP6m0FJwESCfpRbGmPmww1Y5bvrhj2/J5n3OPmf9urPPWb/lkd/9duPWli0OWs4kMkk8Hm/u7Olu0ajVjmJroaPAYjnfaDDU9bldjcFQqBFUv5sRtHQpD9QFZvONo8t4rdFo9HlfwP/W6PIeY2AcAIiQYomfAUAQBLNepzvRYjJfo1IoLojGYmpRFHuQ/MdvMNRiYOC1scc8fxh6e1oyMWiVUumosJU2azWaVfF4fDgYDO7q7O1ZF4/HX5jqvGwvXZaU2Bpuu+PO588+Z/05mbzuVKw9+pja09bVfb2jvU3tcvW35Oq+xJIgFIvFWoZ8w09LolSj0+nWGPT6Oq1Gc4l7hlPXAAAgAElEQVTeVmrzDQz8M98DlDuLPsl6gcKLotja0dV5+YDHs4mxkRXmxKwOAERRHLcpRaFQ2IqLin5YYLY8Ou5KPd0ZryEl0pUrSsvuFgTBNOzzvdnR1flJr2+42VZYtClfSQNara7uum9+q/V/f3n3o/PZbDJXrFar6aYf/viWH998a5tWq6vL9f2JxY0kSW2eIW/9vv0dp/v9/h1qlapaG41+n+KrpoeETp4IAAaj0WiTZ8hbv6e9fcWB7q7r/X7/jsQBHMcpACASiXQDgFKpLFEKisJAMLB13JWMJnumBpWIz6mprNqi0+nWhMLh9rYD+y9weQbqJElqDYZCzl63q16n0dbn8s3H87y97vQzmh586OEtx59w4ppc3HMqVqxcWf3gQw9vuezLG1rITozINGKJrarH1V97oLvr+lgs5jUZjeuWVVVvnyzdnCChWxBIknggHIk09rj6a/d2tK/t6e+7JxQOtwOAKEkRYGTzR7/bvTEUDo/foFJUbB/3eNXquYiPWaNWO5dVVe8rsFjOj8Vi3q7enls7e7prUzfESJLUNuQbbhjwDjqtZktjNt98jDHzqlWHO39x1z2tV1x51YZs3GM+nH3O+nWPbnxi36pVhzvJTozIGD3dfweAcCTS2N55wN7T33cPABRZrRuqyyvaVEqlI78DlB+0GUWGMMYUkiRFcbBZnB/9F5ckqdUfCDj8gYCD5/l6haA4IhwJb56xi4J3cFbFa4VC0VBsLXQmdn31u90bh/0+53R1NVEUW1yegTqFQtFQbittdQ24GzO5QaWkxNZw9de+7ky17ZIjN/3wx7e43W7HnT+93dHb29OU7/EQCxxJ6k96NOgPBBx7O9obE7ueK0rL7g6Fw47Jdj0vRai9QB6Yl1fbPUlb7TWMMaUkSd7R1zmO50vFeLxzVlc9ZIUD+/Y2I+HkoVLVorKqbly7wSSkxorMMz7HrFGrHQVmS0N3X28DAMy1vWCmtl1y5Y3XX9vxyO8edlA7ApENUtsRRu3EGpZ6OwItXcqTIMdxyZspREhSjBcE+4yvoFKNLFEm21WdcdaI8E0BY8xu1BuaaiqrtpiMxnWxWMzb0dV5ucszUDePb4eDwVDI2dXbU1dgMjtLCosemO0FGGPmutPPaHr4kY3bcyVybrfLdeQRq7G2dg1crv7eTFzz+BNOXPPgQw9vqTv9jCaq3xGZZrQdwd7V23NrUv1un1wSQvIFCZ1MkSQpyhgrTDwWRbEXAK9QKldPe7JeX4djTxjfKJ5O+FLQqNXOqrLy1oT9UFdvz63tnQfs0Wi0aa6/RzKSJLWNLmcWzea8VasOd97VeG9brupwwWAwVFJcFDz/s58tNJlMeP+DD7wajdaYyXtcceVVG35x1z2tq1Yd7szkdQkCAIKhkLOjq7O23+3eCABlJbZbqssrpsp8XNSrewvtl2OYPH17IZO6dAkAUGu1x4YCgR1I8rfkeL7aZLOdMtTfvz0eiXww7ioqVS2OPaEBH77fMs7jcpqonly7LzDGajVq9cUAEAgGb5zsOK1WV/ft73yvKZd1OKVS4T167VqTIAjwer3Y9vIrXrPZnNVWhd27drXf+6u7HYODgxTPQmScDJchFiQLTegWK2mFjjFm1JtMxw0PDr4MIJx8gkKjPUFhNNpFhUIbMZlKxXA4gIGBtnECl+Dc85rw7380Ihwet2ElNT7H7/fv6BtwO/L9BuB53v7lr2x4YtXhRxxaWlpaOP0Z88c76HGdeeYnC1UqNcLhEP75z3+5TGZLTu4NjFiJPfnEY/XkrEJkC4VC0VBWXNKYMFq3HHHUK9s5viP+3F+/lO+xZRsSOnmQVugAgDFWYCkuOd3T1/uvWX8IMmbGFy9twot/b0oRQFk6pE8Wn+N2u73ZagAfHBz0nnrKySaTyYRYLIZtL29zKRSqnAkcZd0ROcasUasdZSW2W4674ir856EHvKN2Ys58DyybkNDJg0mFbhSVtbzi84Ghoa7g8FC61ydSVt6A8z/XgEceciTP5OSaeTVdfE4gEAiJoijp9XpNpu7Jc1zoE584UQ0AH330UaitvUPS6XQZu/5UUHo5kWdshZaCp5NN2BdzujkJnTyYTugAAEqt9sSCavtJ4WDIN9Td+WY8HN4+7gC9vg620lqctb4em55pQldnU+KlSVKM877tWKvV1V1x5VcbZ+pocuDA/t6KisqSTN3f7Xa5AMBqLczZLI4MoAm5wHHcutLiko1y+1zINCR08mBGQpeAcVyJ0mQ+VigoqOEPXXWMv6S0NP72m6/B7xvE/o6W5BncbOJzcsl843MyLXi54MUXnt/6xz885YhEIpRhR8iKqYKS8zuyzEBCJw9mJXQzvWZiLR4YqcPJYS0+k/E5Pp8vGA6HI/kwcJ4NtKuSWCBMqN139fU6MtVelE9I6ORBRoUudXdVv9u9ccg37ECev52VlNgabvzBjxozLUxut9urUikVer1Bm8nrzhe32+196MFfN3744QfOfI+FIGaKXHdjzwcSOnmQEaHjOK6uuMDaqNPp1gBj6+2OGftgZgmtVlf3uc9/wZltR5Pu7m5XrtoRpuOR3/1247aXtjrjUzToE4ScSfW5Xcjp5iR08mBeQscYs5sNxsYCi+V8YKQO1+d2OfO95MDzvP3U09Y5c50skE/Be/GF57c+85c/O6ldgFgkTFYCWVDp5iR08mCuQmfWqNWORBFZLn+EiTrc1ddc68hX/Swb7QhTsXvXrvaHfvOAk9IJiMVIui/TC6kdYaEI3WK1/kpQvbza3tZ2YP9n4vH45pmcMNf4nGxjNpvrv/n/rm+US3xOLmZ3P7vjtlt37vywkdoFiMWOXMsj07GQhC4xVnGqAxciJoPx94UFBZcMDQ+/0j/gPmWqY1N96+RSKJZ7fE42BO9Pf3x60//9bbOD6nDEUkOuxhOTsVCEDhgvdgmklP8uSIoKrC8bDYaT/X7/jh5X/2QJ4LLc+ssYM6+rO71Rjgnfqfh8w4FwOBKd73IqZcoRBADArNNqnbai4m8B8rESTMdCEjog/XgXtMgB0wtdajNnV2/PrfmuwwHT23bJlbm2I5BtF0FMJLUdQS6mFMksNKFblEwmdLmOz5kp+YjPiUbDrlAoHDcYjBlzQ5mNu8o999x1z9tvveWkOhxBpEeun1fAwhc6nuO4YpVGUy1Jkqg1Gqt4pUongXESA4uEQj6/2/VfMRbbk++BTkWq0Mn1GxLP8/ZLvnRZUy7rcKnxOS9teyWg0Wgy2hg+Vf3uxRee3/rU759ooDocQcyIcTvBAXmsQC1UoeM4jitiHKcRRTEgiWJfuoMY44r15eWf0tUsX9P31ht/EIOB13I90JkwJnTBwHvDPt+/5LbmPVl8TjZJjc95e/t2byQSzdoSqc/nC3Icx7RarRqg+ByCmA+MMbtBp3cm9hTku7d3IQodz3FcoSiKPgD+GZ3BmEG7Zu23I0qlJvbGa9/P7vBmT0LoAMQB8IB8djFVVFRee+MPfvRzo9Goy8X9/H5/0F5dxQ499NARwdm9O9jW3sE0Go06F/c/cGB/7+Mbmx4k2y6CmD9yaUdYaELHMcZ0kiT5MZc2g9KyL6P26E/i75sbMj6yOcJxXF11ecXzHMepAPn0paTG5+QiLWB4eKj3rDPPLBEEAV6vFy1bt7ooPocgFj759t9daEKnBBBJeU7ged7GGFPxCoWZEwQdGOMFjaYwMDi4O54UWQNgJJB0zdq6fItdqtMAAITCobbOnp6afI5rqvicTG3PT8Xl6u8968wzS3Q6HcLhELa0bHXp9YacCRzF5xBETpjQjpCrRJWFJnSpDilqxnEGSRQ9AGKpB/Nq9dHqlavO87//zkbE4+1jL6xZ68T+jlYMuPNhXzPBOy4Wjw+pVarKafrossps4nMynRYwODjoPXTlCqVncDAyMDCQsxQCis8hiNyTj4zMhSR0qSLHYaSeFZ36LGbEJ065Ff99Y2NyICm+/s0WPHBvXRbGOSmTTd+LCqybZ9AwnjVKSmwNV3/t687ZtgssxPBT4GB8Dtl2EUT+SG1HyGa6uZyFzgYghMnXcDnMpk537nlN45Yry8pHfu7qbJrT6GZBuoLsgHfQmfgGM0NnlIyTqfgcOcXjTAfF5xCEvMiFIYZshW55tV0CRkTB6xtuikajzRj5xc0KhaJeo1LX8Rxn9gUDzUmvTQ7P21GzrB4f7z64VT9V/DLMTLfY5lroshGfk7o9X25QfA5ByJqsWhwKmbhItujp77vHoNXVVZWVPwrg0Ugs6lIKinEzh9HNHI/2u90b/cFA86SxEfF4G3R687jnTGZz2mPnjyzjcwBg1arDndmIz0nE4chtdud2u713/vR2B8XnEISsGRzyDTf4Av6mhGl9VVn5o36/35EJ03pZC10wFGr2BwIO5nbZ9VrtjcWFRV8bfUkUIYkc2Nj4i6zWDUWwbojFYl6XZ6ApEAw2Tdii39/XBsbMSNRlPny/FTxvRwaXsVRK1XesFsvXNWr1MkA+Nji5is9JiJwcBI/icwhiYSGKYovLM1Dn9Q03lBWXNOp0ujU1Ot2W+caQyXrpMjmIlDFWW1VW3pJYx00gQoolC14y4Uikc2DQ80QgGLwRAKDX1wEAfL4WACN1uiFv29jjeZBq2xWJRvqGff5tg0Per2KaWVw2ly7zHZ/jdru9uTZ9pvgcglgUTJZu7pzthbiMDy3z8AAgSVJre+cBc0dX5xUDHs+mxIvJIheJRV2J/0YikV6VUlmuVWtOnPTKoVAmvumbjXpD07Kq6u0mo3FdLBbzdnR1Xr6/q6skGAq+XG4rbVUoFA0ZuM+sYIyZjznuuMaHH9m4PZ8ZcVar1eR2u70+ny+Y7Xvt3rWr/Zqrv3r6c89uqieRI4gFz2AwFHLu7WivGfB4NgmCYCorsd1Sbitt43m+fjYXkvXS5Sg8RqyxAADRaPQJT9T76ODwkF2pUNRbjKaGxG5GpaAoDIXD7YntqhNQqszwDh5czqysqsXOD+bcQzXdbqFwJNLY2dPdpNNqnVaTuTVXAalyi89JjCNb7QgUn0MQixdJkto8Q956r2+4rrS4pEmtUlVX2EqbwuFwW6/b9RVJkt6Z7hoLRehSH4uSJLWFI5HGHld/I3O7arUaTYPZaKoHRnY3Dg55m0PhcMu4zSmVVbXjmsTLyu3YsX3Wbhiz7P8Y9AcCjkAwWGs1Wxoj0WjbfNaapyIf8TmzISFymRQ8is8hiKWBKIotPf19jrIS20NKhaJIEIQ1lljs5wODnvXTnbsQhE4CoMNBA+cox3FFoij2jB0gSa3+QMDhDwQcjLGj0io8Y2b4ffP6MJxPR78kSa0uz0Adz/P1JdbCZq9vuDlTuzDzEZ8zHyoqKkvm245A8TkEsXRI3QPh9/t3zGaFbCEIXYTjuBJRFBNCF2eMCQC0AAKpB086jT3pVCde3eYce1xgrceO7S0zHEPGIuPj8Xhzj6u/WaNWO22FRS39ngEnY0wBAGIaG7OpmI1tV6YYGHB7CgqslvleJ9GOMNvNKmTbRRBLign9dXP57F0IQicyxngkzeri8fgBtVZ7fCgQ2AEgPO0VTj6tEW+93oTk5a2zz23AH55smO5UlVLpsBUVOzPtuh0MhZyhcLjJZDD+QqfVHgUAAs/PuK+vpMTWcOMPftSYqzqc3+8PWizmyGc/8xlLOBzCK6++FlEqlcr5Xjcx/unaERK2XRSfQxBLg9TP3vlEly0EoUM8Hu9WqlSHR8LhdxPPhQKBVp3RdEo4FOqLRcLvpT2R5+048WQH3nq9aZzP5SErHHjr9RZMUdfJRY6SJEltg0Per1otFg8A8AI/rWilxufkgqT4HE224nMSIpduhkfxOQSxdOA4bmzTCZAZD8yF00fHccUqtbo6FAi8mXwcLwgrDLbSk+IAC3q9++PxeEhasfIsAIDfN4g9H4+fyalUtTjjLMdk1l+p8TmhcLi9p7/PManjSgZgjNmVCkV9JBptnux/pkKhOGr9uZ/6Sbr4nGyRGp/z7y0tvQaDMesmzoFAICSKovTqKy+/QfE5BLE0SLcHIlOfvQtG6ACAF4Rlap3O7vd6/z2ni6pUtbji6kY8eF99mtlcxpoTM0miDvf1b1x3g8/nC+QiLSARm7NixQpNLBbD29u3e3Mdn/PQbx5wkm0XQSwJsv7ZuyCWLhPEY7G94WBQbSoqOn/I5domSdLAjE8+ZIUDx55Ql07k0sXnZKsFYDakxueYzRYDkL1+NJ9vOFBQUBBdf87ZJkEQsHv37uBHu3ZHzGazSa83ZPp2E6D4HIJYWuQqeXxBzegSMMbMhfaaC4M+n8vvdr0iiWLfpBcqK2/A+Z9rwKZnmlIjeTiOq0sYiAIT43PyxUzic7KRFmAyGsNHHnmEyu/34x///GdvYWFRzrLmyLaLIJYOudgDkcyCFLoEHM9XmyqrzuGNpiJRqdQEhrzuqKBQxxUKFVatHvGMfGlLc6rAzTQ+J9cwxszr6k5vnE18Tqa9JDPVPjBT3nj9tR2P/O5hB8XnEMTiJ90eiFx89i5ooZsD4+JzgOyE/M2F+cbnyCEtYDZQfA5BLCnyGl22oGp08yHVtmuxxedMtT1fblB8DkEsHRQKRUOxtdCZ+OzNxx6IRS9087WOyRbZsu1KpAWoVCplwn1ELpBtF0EsHVL3QOTzs3cxC11Wo9nnCmPMfPSxxzq/9a0bvpWte2Q7LWC27N61q/2Xv/h5A9XhCGJJILvP3kUpdJm0jskkuY7PyUZawGyg+ByCWFpMF12WLxaV0GXDOiYT5Ds+J5EWEA6HI7kSWYrPIYilg1z3QCSQpdAxxmoBQKlQnhIKh1pmcPyc43OyCc/z9k99+rzGXNp2TYZer9fo9XpNtjervPjC81vJtosglgapeyDk8tmbiizbCyxGU3OBxXJ+JBLp3d/dZZvi0AnxOXKy7cplfM5syXQ7AsXnEMSSImPRZblAljM6fjSuRqlUTlpXypV1zGzJdXzOXEmI3HwFj+JzCCItKl4QStUaTWUsFgtyPK9iPK9WGwxlogT4PQO7o4HAa/ke5FyQ6x6IqZCl0E1Frq1jZkqu43NUKhXC4emj+KajtLS0MJEWMNt2BIrPIYgJqAVBKAVjfDwW6/cPD7clvxjwesEYK1IajbWVZ57z697W//4j4nL9NU9jnRWT7IHI+2fvTJDl0mWhpaAlsea7p72NAfmJz5kJPM/bTz1tnXM2tl3zvB8EnvUed9zxJe+809rLOKHE6x3KyLVnOrt78YXntz7zlz87qV2AIA7CGNODMY0kigMA4jM5R1FY9Dn12ed+ZfgPT34L8Xh7loc4J+T62TsbFoLQWSaJcMjrltVEHW4+tl2zRatReWtqapQWS4EGAPbv3+/t6u5WRKOxjMbnTNaOQPE5BDEpKoyskPlnfSbPV+Hqax/DIw85xgVE5x9ZRpfNBdkLXSgcbs+ndUw6MmXbNVMUCiFQVloaraysNAGAxzMQ2LdvXzQQDGdNYH2+4UA4HIkmRJxsuwhiUhhGRC6a8rxOEIQSxjhlXIz7OJ43qo3GFdFI1B8eHnodkjR88ArMjGuua54kKzPnyHUPxFyRpdDZCotaEzU4QD7xOUqlsvZLl1523xmfPOvkXNxPpVJBq1G7Vq9ePbac+Oabb/SC8SWZqM/NhGc3Nb/w12f+fA3ZdhHEpPAYv1TJGGMmAHEpWcwSL3KczXjY4RuGOw+8I3oH/37wKrwdF17SiKefqM/+kNOTbg+EHD5754ushC41PgcAOro6L5eDbVdqfE420wJG63Cu4447fuz6ma7HTQfF5xDEnFEDiAAQpzqIs5VeKnKcYlyM2CErHAgEBlOjxbKNXKPLMoVshC7VOiZBYjNKvpguPifTDdgFBQUoL7OFTCazGhipw/W7XMpAIJgTg2aKzyGIKdEvr7YP+/3+HW7vYGM0Gt0EwDPnq5WVN2DI2wafr2XsuYsva87hrC6v8Tm5Iu/tBemsYwSFwmbU60/I57hmattltVpNc92en46BgQHE4zFUAaE9e/aEw5GYKR6f0QaueUO2XQQxLWOfmVVl5Y8CI59ZQ35f0+guRAZAmvHVujqbcO55Tfj75pax5/Z3tEGlqs32xpTU+By52XZlkrzNlqayjknXXpAr5hOfI5e0gNlC8TkEMWPMy6vtnj3tbYwxZlerVA0FZkuDWqWqjsViXo/X2zzs9zXOqrdMr6+DUmXGgLt57LGttBYf786Ky4hco8uyST5mdLK0jslEfE6+0wJmC8XnEMTckSSpPRgKOTt7up2MsVqDTu+wmEz1RVbrhtHd4lVImkzERdHftr9DP+FCPl8LDil1YMB98HFJaT0+3p3pIcsuPidX5FTo5Godk+n4nJG0gPHb8+UExecQREYYW6aUJKl1yDfcMOQbBs/z9faKymeQsmLGc5xuebVdcg0MPOUdHvrSuCvp9OZxj49aU4tXXsrYQOUan5MrciJ0co7PyZZtl15v0Or1I6KiUikVer0ho03dc4VsuwgiY6Qtq8Tj8eY97W3c8mp72lpdYUHBJb6A//fxeHzzpFf2eDLy/pTrZ2+uybrQ8TxfX1Zc8qBSqSyRi3VMLuNzEjO6bLYjzASKzyGIjMIwUegUSGoa39PexpZX28U0x8Gk139twOs9KHR+X0a/eMo1uixfZF3o4vF4c2dvz2BhgfUXoVDovXg83pLte05GPuNzMpUWMFsoPocgsoYKQCzxgDGmliRpnDvKnvY2DoC5rKTkTY1aUwOAiaIYEqWD54Hn7QgEBsc9/vD9uX4hleUeiHyTk6VLURRb+lz9xyoUigZbYVGL1zfcnGu/NLnE58wnLWA2UHwOQWQVaVTYkr0tFZMcO9jV27ti0ivVLKvHno+bxh6X2OqwZ3fLbAeUugdiodt2ZZKcbkaJRqNNPa7+Zo1a7Si3lbblYiqt1erqPvf5Lzjn0i6QLbRarRrI3uzukd/9duO2l7Y6qV2AILIKA6DEiAsKJEnyCYKwLBaL7Z3xFVSqWoycfFCMTju9fjYN43KNLpMT+WgvGAyGQs6u3p4ms8HYyPO8MxvF0VzH58yFTC9nUnwOQeQOSZK8vCBUxGOxfaNPRURJiggKxYpYNDp9bwBjZhx7QgNeeckx9pxeXzfTZcvFEJ+TK/LmjCJJUptnyFvPcVxdWYmtZWDQ05Sp7a7T2XbJjdLS0sL5tCOQbRdB5IUoRpYwjZIkDQGAGI8f4DjuUJVWd2I44N8BIJj2TL2+DmuOrser25zjnj+v3oE/PNkwzX0XTXxOrsi7BZgoii2dPd12lVLpKLeVtva5Xc65XivX8TkmkxGSGOsNhiKG+WbCzbUdgeJzCCJ/xGOxA2qtdm0oENiB0SXMWDT6UTwWs5hKy+pFgIWGh7viYjwsMqbAISvPAADs2d0ybiYHAOee14TNzY1TxfSki8+RQ3SZ3JGNqfMo5gKT6XGL2fIpABwwMwswpVJZe9EXL2nMVR0uXXzOBx/uxMDAQMbuMZ27yp/++PSm//vbZgfV4Qgip4xZgCWeYIyZDJaCk4YG3P8GMCE/i3FcGdRqu8RxynHmzcmce14TdmxvmSy1gOO4ugKT2ZloF1gs8Tm5Iu8zuhQGvT7f7yxmy3nAiAfbVAeni8/JJmPxOcceUwigEAA++minKxKNFWY6Pichcqn1O4rPIQh5IUmSd9gz8Ia1vPxznt7e18SDNbuR10WxC4FAV9qTGTNj/acbJxO5xR6fkyvkNqNLxowp6nVHHbXmzsuvvOqaXNXhTCZjqKK8TLJYCjQA4PUOhvbs3SflIj7H5/MF/X5f4L5777mdbLsIIq9MmNElodaZzKfqiopWuPbt/T9xqtUWxsw4qtaBVatr8aenHJh47Lj4HGDp2XZlEjkLXVqS43Ny0XxtMhmhVAiuQw89bOw+b7/9Xy/F5xDEkmQqoUug1RZYzzAtW358NB4XA8PDAzFBUEUUCjU4jkdZuR0AsK2lKd1SZrrossUan5MrFozQTRWfk420AJVKBZVS4TrqqKOSUr7fcYUj0cJweMIyfFag+ByCkB0zEbpxMIXicCiUBRLHhElrdFia8Tm5Qm41ugnMJD4nG2kBohgPWCzFCmAk5XvQ6zUNDftyYt1F8TkEsXiQotEPEI1OdciE+Byy7cossha62dh2ZTotIBqNads79mPY58fAwEBO6oBk20UQSwu5RpctNmQpdPOJz0mIYqaWMzPZMjAVFJ9DEEsHis/JLbISukzG50y2PV9uUHwOQSwdKD4nP8hC6LIZnzNir+ULchzHEmbKcmD3rl3tD/3mASfZdhHEwoExVjX645TtT2mYEJ9Dtl25I++7LktKbA1Xf+3rzlzYdslhdpeow5FtF0EsPMptpR1qlapytJbmmP6M9LZdFJ+TW/I2o8tHfE6+wk8TUHwOQSxs1CpVJQBoVOpafyAw5bEUnyMfci50ubbtSsd80wJmC9l2EcTSgeJz5EdOhU5O8Tnj2xFUymykfVN8DkEsKSaLzyHbrjyTE6HLdXzObMh0O0ICis8hiKWDQqFoKLYWOhPtAhSfIy+yKnS5js+ZDwmRm6/gUXwOQUwO47ginufNglJp5XheHYtG/fFYbCgejX6U77HNBYrPWRhkZdflTGy7MgnP8zCZTBlr7p5LOwLZdhHEpKgFhaKC4ziNKIphMR73SZLkB8BxPF+o1OuX6Ypth0Gp1Lg/eO8xSRTTR9rIgOXVdgkAhny+18Ph8M5k266uvl4HxefIk4wLXbXd7nBc/x1nrupwWq0muHxZDTOZzOr9+/d7XW63ye+fejfUTHG73d7pfg+32+1tvPsXTorPIYgJMMZYAWOcShTjfQBiUx7McaWWY4//ZigajQZa374LkuTN0ThnTELoREgxDkwA8h+fk5hYXHbZhgayEExPxoQuOT4nU9ecilzG50zWjkDxOQQxKYwxZtn+SHoAACAASURBVJAkKYw0qdtTwWm1J0lf2nCr9LsHL4SM3ls8z9fbKyr/mngsh/icdH7Au3ftar/3V3c7BgcHaZfnKPMWuqnic7JBuvic999/3xUIhrIen5OY4VF8DkFMixpABICY8ryK5/kSQaks5gSFLhYJD8YikS5JkvrHHZVI3n7+b458i11qfA4wEqHT4+qvzdeYZuIHTJ9TB5m30OVqqZLneaiUgrempkZhsRRogYPxOV7vUDZvPcbuXbvaH/7tg7d3d3c/nJMbEsTChI3+SxY5geP4YkASRVEcBuAHAMZYodJgWKMtLV8zuPujP0qieGDsDJWqFhdc6MTTT9TndPQHmWDblXA38Q4NbXV5BupyPaC5+AHTylOGli55nrefeto6Z7aawLVaTbCosDBSWVlpAgCPZyB4oLOLeb1DOfGupPgcgpgVHMaLHMcY00qS5JvqJEWV/epoLBpBV2fT2JNl5Q3Qas34eHdOa+CTxecsr7Z7gNwL3Xz9gJd6T29GN6Nkw9arqrISVVWVY4/ffPMNVywuFWa6DjcZFJ9DEJPDGKutKitv8Xi9zf5goHkS9w8FgCmTR8coK29AKDSIAffB61x8WXOuZnXTxeckNqPkUugy6Qe8VF2astJeMJvA1Jmg1WqCYjzm5QWFLVM7KqfjxRee3/rMX/7sXGp/EAQxGziOq6uprNoSCofb1SpVdSgcbh8c8jYHgsGmOXs6nnte07jaXFl5AwCMm+llmHTxOelsu3IpdNn0A15q/b5ZSy/IZvRONqH4HIKYOQmh29Pexnier9dptPUWk6leEAST3+/f4RnyNkWi0eZZ7UzkeTtqltWPLVcmNqb8fXNDFn6FyWy7nOkOzoXQ5coPeCklqWQ9pifXuzLnylL6n04QmSJZ6JKeNisUinq9RlufMDYe8Hg2FVgsn8XBzxzJNTDwR+/w0MVpL3zICse4utzJpzXilZdmFIszU1RK1XdsRUU3cRyn4ThOM5P4nGwLXT78gJdCO0LO8uhy3Wc3G5baNJ4gMsUkQjcGY8yuVCjqK0rL7p7sGns72o+VJOm/455cs9aJHdudY4/PPa8pUzO61PgcfzDwHsD4Plf/tdNZd2VL6OTgB/ziC89v/eMfnnJEIpFFFyPE5epGgYC/5baf3GL/8Y9uut7tdsvC8eCN11/bcc3VXz39uWc31ZPIEcS84VMeM0mS2sKRSGNMjE+643JZVfVb0165q7NtnmMDY8xuMZqaayqrtuh0ujWhcLi9o6vz8p6+viN7+/u+VGAyO416QxNjzD7fe80UpVJZe9mXN7T86r4H/prvScDZ56xf9/AjG7fXnX5GE2PMnM+xZJqcCV2C9ra2xhsc37Q/8rvfbsz1vRO43W7vd799/eX33XtPLW02IYiMkSp0isQP7fv3G/x+/zuTnSgIwqVTXrms3D6PcZk1arWzqqy8tcBiOT8Wi3m7entu7ezprk14U0qS1OryDNT5g4HmEmths0atds7jftPCGDMfc9xxjQ8/snG73Mo6V1x51Ya7Gu9tq7bbM7pUnE9yLnQAIEnSYMuWfzd89YoNa1984fmtubz3z+647dYbHN+002YTgsg4ipTH4z5felz9a/a0t7G9He01oihGAEgY6SAPKAXFEVkZkELRUG4rbS0rsd0iCIKp3+3e2NHVWTu62WRCLS4ejzf3uPrrAMBWWNTK83zG2xqq7XbHXY33tuXK9H4uWK1W0223/+zuH998a5tWq6vL93jmS84TxpOJRCKtTzy+se4fL76QsT6RySA7HILILowxTpKk5McKSZKiAMY1vUqS1LZvf4dqigtNXDYzmWe1lJYan+P3+3f0DbgdM4zPGQyGQs5QONxkNhgbeZ53JPfSzRU571OYjBUrV1Y/+NDDWxb6PoacbUaZjmy1I1B8DkFkj5TNKLpRsRsefVngOK5IFMXuWV10zVon3mltHOujK7DWQ602z7CPzmzUGxozGZ+T2LziCwb+U1JYdA0wu80o+fQDzrTR/UINlJaN0CWYi5dbOig+hyCyT4rQcbwgVMVjsbak120SIEqi2DejC6ZrDr/4smb84cmG6cydNWq1s9ha6EjYdmU6PsdiNDUnWiTcHs9fBoe8X5jq+Fz3Ek/mB5zJ6DJgYfYay07oEszEnXsyyMSUIHJDansBx/FlkiQGJUnyJI5RKJWrwBgfDYffm/Ji6UROr6/D8hV141oNUuB5vt5WVNw4mW1XpuA4rk6jVtcLvGAb8g3/VJKkSTfXZNodajry4Qe8kNyjZCt0CWaTjrCY+0AIQo6k6aMTVBrNkeFg8D0k+VtyPF9tLi07bdjt2hkNBt8cd5ECaz1O+EQ9trU0wedrGXueMTOuua4ZD9xbl+7e6Wy7uvt6G2ZYh8sK8/mCPhdMJiMkMdZ71FG1JYnncu0HfM3VXz1d7mIne6EDDiboTrZLaSl09hOEHEnXMM4YM+rN5hOGPZ6XkBK6ygnCMl15xSeDHk97jOdVqKo+Bjs/aEY4PP7LaULkHnnIMeG1NPE5Pf19znAkkrcyRWrJxefzBTmOY1qtNiszKp7nIfCs97jjjh8TuHfeae2NiyjJpR/wQplYLAihS6BUKmsv+uIljYmiLsXnEER+mcwZhTFWYCkpOcPT2/vPWZcQeN6Oq69tSidyk8XnIEN1uNmSqMNNZtvV3d3tKi0tLUx37lwxmYyhivIyyWIp0AAjdbiu7m5FNBrTZvI+k0E1uhxhNpvra9ceXb/tpa3OhbrdlSAWA1NZgDHGTAVl5ecFhoe6gkNDW6a9GGNmHFXrwKrVtambTyaJz3HMOSEhA8wmPieTgqdSqaDVqF1lZaW6ffv2RQLBcE7qgAvZD3hBCh1BEPJgOq9LABBUqjWFyw45MxwK+nz9fR9G/f7tSLQg8LwdJnMtVq2uQ2WVHZubG5PrdIwxu9lgbEyYQ08Wn5NLUleWZoPb7fbm0rA5U1AfHUEQS5aZCF0CxnElSpP5OKHAWhMVBFVEoVCD5wXs72iFd7AV4z9EZxWfkwsyFZ/jdru9KpVKqdfrNZkaW7ZYLEGteXVGIQhi6SCJYm/YM7A57BmY8jiFQtFQVlzSmKjDzSQ+J9tkMj4ncY0DB/b3VlRUlkx3fD5wu93eO396u2Mh1eGmgoSOIAhZkBqf4x0a2jrgHXTms10gm/E5CZGTm+AtVPeTqSChIwgirzDG7Aad3pmw7QqFw+19bpdzPrZd8yWXtl0VFZUl2W5HmAmL2Q+YhI4giHxh1qjVjoRtV1IdLmO2XbNlup7dbJGo1+Vjs8pS8AMmoSMIYs4wxvRzOS/VtmvA49k0ODzkyLRt12yYjQtTtkjcOxv9d6ksJT9g2nVJEMRcMdsrqw7wHKfr6Oq8fCZLjYyxWqvZ0jjH+JysIOf4nGzN8JaaHzDN6AiCmBMcx9XyHKcDAIHn7dFodKrDMx6fM18ylZSSTaxWqykQCIREUZQy0Y6wkGy7MgkJHUEQWSU1Pkcutl25is+ZL4kNKvPZnbnU/YBJ6AiCyAqT2HZlPD5nNuQjPkfguaA/ECqYb5rAXNoRyA94BBI6giAyCsXnADqdFjyHRHyOxucbjny4c5cyHA5Pe+50jLQjDAfC4Uh0KsF+5He/3Uh+wCOQ0BFEPmBMz/N8sVqrrYrHYgHG82qVXl/KCQqNf9DTFh4efguAL9/DnCWyjM859bR1zvnads3ifhB41ru2trYEQAlwMD4nEyKXQK83aPX6hJ2YUqHXG8aSCxZSIGquIKEjiFzCmF4QhFJIUjwejw/4h4b2Jl4KDo/4HCs02hOKVh/5DUmp1Lh3bP+tJIqdeRvvDNGoNScWWwvb5GLbleiHu+yyDQ05W6bUqLw1NTVKi6WgBBgXn5M115PkdoRgwB984Nf337xYbLsyCQkdQeQGxhgzgzEhFo3unurAaDDwev/7777OOK7MdNb6W30d7XtiH75/Z64GOhcsJtM5gDzic5Jtu9xutzfb91MohEBZaWm0srLSBAAez0Bg37590VzF5wBA0yMP37/YbLsyCfXREUQOYIzpJUmKAIjM+lxb6WXS2mPOxN83N2R+ZHODMWYvtBQ8YTQYTgZGlikP9HQ3yDE+J5Pb85NJ5MKtXr16rLH7zTff6AXjM7pMORULPT4nV5DQEUT2UQCIAZCSn2SMmXlBKOZ5XscJwv9v706D3CjPPIA/3a1bmlFrpLns2CMwXkNxeDgCLOBYJpAAIYtzk2Wrok2y5KhNULLZLLkKsdlsUlmyiE0qy0KAcYVssklInC1IbJKNx9hkARM8hg1gm8Ezxscc0ug+Wmp174dxDxqNZkYa9aGZ+f+qXIWu7vcD8Pjt932fv5M1m10yEVNIp49Iojg86wpr1gZp88WBFih2s+JzFKfGx+42KkKn3vgctZsnd/q8mU2bNrmIptfhGNbUnUym1Lr8glZKfI5e8OgSQHtlml3kTCzLemVZLoil0hGx6qC1zeO5ybyu78Pplw59l2R5+tHbqZMD1Nnlpw7vdpqKGTJrqo7PiSeTu5VHlkZpJD5H7bSAyWjMlcsPkSzL+Vwur0v6wEqLz9ELZnQA6nKd+TN25jVDVTM5IrITUX7BqzBMO1151V30wvM/JEF4c73rU58ZpPu/t510XIthWTbQ4ebDynEBJT6HiOisdev3EOk/o2u2bVcmk8kLglBcTmnfq61tl5pQ6ABU5HQ47uvp7PpsQRBGE6nkzlw+H6k6IM3R9AyvPjfePEC7ngjNFDaXK0A9vf302lHNt+xXx+dUt+1S0sWJ9Ct0asfnGJEW0KiVHJ+jF9boAQCsNFPx+K/Smcygz9MRPHt937EeX+eQ1WIJMQzjp0aKHBHRk78J00X9oZnXmcwgXXZFQM3x1mK32cLr16wdUorcqfGxu0dPnvAb1ZuSYRj+0re+NfLIjkePqZkRV7k9X61rquXokSOjn7z949se/eGOAIpcc7BGB6CyQlEYyhcK4VQm7TGbzbe47I7tb+ldcy8R3TsVj/8qk8/tLJVKO6meM2bl8gi52vhZ771xfIQYhtfi8aXJZLqt29f5jdUWn6NE4ugRj7OY1RSfoxcUOgDtxEul0kC8lBxIpFN+i9m83dPuDnZ4PI8Q0UM094lKeXh0ZO5/k6/8aZCs1v6Ztbpjw0PkdPZTJjOo1kAZhun3eTq+53Q6+xkirlXic/Rs20U0XfC0Oo5Qj4cfenDH3sE9IazDqQuFDkAHsiyPCMViZCw6GWFi0f6z1/cdrPE1bkOfX379+OgVsiw/N/NufGqQnM5+Us5mpZIjKg6tOj4nFU+lHnc5nVeqeI+GGB2fo6QF6Dm7W63xOXpBoQPQBktEUq0PZFkeEkVxymQyddT6/Oz1fc8Mj46wFT/Q5G/3Vosl1NPZFa4Vn5PKpP1e3jNQLpcTej26bLX4HKXIqX3+rtJqj8/RCwodgDaqC92s16MnT3iJiDb0+UWa3olZafZuaKu1X9WB1RGfI8vySDQ+FWBZNrCmu2dwKhEfyBcKEdKod2V3d0/w9k98KtyKKd/1pgU0QonPQdsufaDQAWiDpdlHCbgzf2adDlfW5Mxm8187bPbrOI51y5IsMgzTP9Mvct36AA2/NjDzow0bA/Tqyw3PAJYSnyNJ0uDJsdN+q8USWtvTOzQRi4bV3HnpcDgD733f+8Nq7qTUwkJpAY1CfI7+UOgAtCExDGOXZVmJ2hFZlu2UJGmi1pdLpdIjyVLpkZpX2ripn147+ubf+tes9dOhg42s5cyJz5mIRSONnHsTisXIybHTA+2utojb1RZUDowvld7xOWpRZnRLeZyJ+BzjoNABaENkWLZdLpeVQqd0R1m8K0qlczaGaN/gwMxrhuHn//Jc1W27mozPSaQy6SDDMP1e3hNhOXZJs5pG2napIZFIJDf92UZLV1eXfXDv3qjX62t6g4lS5OrZsIK2XcZDoQPQiCzLJYZh2mVZThERSZI0YbPbLy3k8/9HRIu3t1fW5iqPEVzUH6Lf/3bR81Usywa6OrwRp9O5mUjd+BxZloei8anAmu7uI8p7Yh2P4Srjc5odQ70sFnPyhne+w20ymWh4eDjHcSazmtfv7e31ZTKZPMuyjLJbs9I3v/H1u7EOZzwUOgCNyJI0ZbXZLhAKhUPKe4V8/iVHW/ufC/ncG2VRfH3eH5+zcbobSmWrL6u1n847v58OHQzP9zOGYfx8W3ukw+O5hWh6HW5sciKkRXzO5NTUP9uttgDHsvxC63bzxedoKZNJR7cFtvqsVps7m83S4088Me7zdXbzfEMT4roo5+0qZ3eIz2kt6HUJoCKnw3GfJElxZf2LYdlOq9W6vpDP/7Hyexa7/a2ODu+5hWxmolQQpmSWMUssa6Ge3n5yunh69eWds5o5MwxPn/zbnQs0dJ4Vn1OxDqfZTsnFKPE573jnDTdotT2/WiwWjQa2bvW53W4SRZH27d8XNZutunU6GRp64ZUdA4/8Yywa/Yle94TFodABqKi60BERcSbTWSzHuUqC8FKNn7g4u/18iWHNMsuYanY7UYrcww+EZhW/M8xmc7DL6wsrxwUmY7Ed6Wwm3Eptu9Tenl8tn88X/H3r5Y0bN9qJiA4fPlwYGT0uO51OXbqboG1Xa8OjSwCNlUXxGMOy57X7fO9ORaO/o9mbUTLlfP7ZeX9stfbTez4QrlXkquNzWqVtV634HDW351fL5XKJa7cFeJPJRMlkkvbtfzrJ87zb6XSqdYsFIT6n9WFGB6CiWjM6BcOyPT3nbHz/1MkTB4VsdoiIsvNeiOP89I4bp69RGdMzrbpt16z4HCM0Gp+jdnutaHRy3GwycW7eo9tjSsTnLB8odAAqWqjQKcw226V8n3+LbLHahUw6no/FXi+LYk7m+XOos8tP553fT28cH6Fnno5Q1f9E7TZbuMvrCynHBc7kwBm6DnfJZZeF77jj83cs5fetkBbQqKNHjox+555vB3EebvlAoQNQUT2FrhJrNp9LJrNHYhkTMQxH2exQrc0mHMdt7+nsirRSfE53d0/wzi9/NdLsuttC2/NbidK265VXXg4bPRZoDNboAAwklUqvUqk07+fK4exG2nZpTe34nFrb81sN4nOWNxQ6gNY0p23X2OREWCgWDdvVp3V8TiuFnyoQn7MyoNABtJiF4nOMGI8Sn6NX267pbiPaHkdYzNEjR0Yf+I9/D6Nt18qAQgfQIuqJz9GbUfE5Wh5HWAjic1YmFDoA9fA2q/U8qSzl8oVC3T+qFZ+jVduuerVKfE4zaQGNQnzOyoVCB6ASs9m8nW93X09ElEin+utooDxf266w1mOdj9K2q9Xic5Qip0XBe+7ZZw49/NAPQjgusHKh0AGoxMRxfuWfGYbhZVme97sqx+eoQu/4nKWYTvtW5zgC4nNWDxQ6AB1pGZ+zVEbE5zRDOY4Qi8WSSy3KiM9ZXVDoAHTAMIy/zekKK227CoIwOhGLho1s22VUfE5ZFEmNVl1KkWvkOALic1YnFDoAbfF2my2ktO1qlficZtp2LUUikUhuueZqt9vt9omiSPuf/kPGZDK51Li2UuQWmuGhbdfqhkIHrYJjWbbbYrOtlWW5zLCcjeU4m8lm5VmT2Z6Nx18r5XPzd/lvQdXxOa3Qtqs6Pkdr2Ww27+9bz1xz9VVuolnxOaoUuUper9edy+UKkiTJlY83EZ8DKHRgNBPHcT0syzrK5XKqkMsdmPVpioiIHNZ291W9m6/6Znpi/I3MsdcfJVlOGTHYelWuw7VCfE67233zF7/4pQfW9/X16nXPUkmIvv3abT4943OUDSonTrwx/thjP/sJ4nOACE2dwVhWlmU9kiRNEVGxnh9wdvvlru3vuzP52E/DVCy+qPH4GuKw27/V29X9D8rrVozP0aO9VjIRj1533dt9VquNBKFAewb3Rl2uNl3jc9C2Cyqh0IFRzAzD2GRZTjf8S4Zx0ztuvJdeOvQUnTo5oPrIlsBus4V7OrvuZFnWSmT8cQGlbdeXvvK1u6o/0yotIJFIJM87d5N5w4YNDlEU6YWDB5PFYkm3owpHjxwZ/e6/3RtKJBKGHbSH1oRHl2AUpkaRM3Mm01qW5ZxlUUywHNdua28/R5Jlyk3F9hBRhoiIZDlJu3/9Ubrx5gGKRYeqk7f1VB2fo8jksgNkUJFbLD5Hy7QAn8/nOHr0aH5k9Dhjt9t1KXKIz4HFYEYHRuCIqFz5BsMwbURklmV5qsb3XY7eNbeIZrOjeHz0wYof8fSh2wbov34UrJXhpqVabbvSmcygcnzg2BvHt+m9JrfU+JxWSgtoFOJzoB6s0QOAFa+HiKofkUlVry2yLGfnKXJERJnc6VM/Ko2dfoauftubu+dkOUGP74zQRf0hFce7GN7pcETOXt93zN3evlUUxeSJ06c+d3LstL8klkZ0HMcMjuP8gW3XDtz/wA/2LCUjrnJ7vvqj08aTu3ft/eTtH982uOf3QRQ5WAweXYKWXBv6/KeJprfWp7KZgTONiqt7Y5VqvDeHXCy+RM8/O0CbLw7ToYNhIiLKZAbpvPND9OIQr/WsbqXH53i9Xvd0WoDVojzebDWIz4GlQKEDLZmIpjdmtLlcgQ6P55eiKCbjyeTOdDYTqWh7tWiRmyEIQ5TNBIjj/KR0t3jyNwPUu2a7VhtT5onPMbRtl1bxOXqmBTQC8TnQDBQ60Fwmlx1IZdJBhmH6HXZ70OfpCHZ6vR8pCMLoVCI+UBCEgYYOUQ+/NkAbzgnSa0enH2NOxXbSjTcPqF3oWJbd4nG7v6YkErRCfI5ebbu0TAtoFNp2QbNQ6EA3siwPZXO5UDaXC3Ect91pd2w/E1FzF03P6io3R8kT0ckfpLPZ22tcKEFOFz/rvVRKzb/l83abLdTT2fX3kiQVi6XiRCwefySXz9+p4j0aYlR8jpIWIAhCUe9UA8TngFpQ6EBPLJ3ZiFIul3emMumdqUw6tKHPH6O5G6OYLl/n33T5Oj86PDoy99/TbGZ2YVu33q/GAKvjc2Lx+M/EsjjW7nTdIBSLzxgxmzM6PsflctldLpe9mbSARiA+B9SGQgd64mj2jkuWiBLDoyPchj6/RLWPu3C9Xd2vnp4YP3fWu9UzOo9n9usGsSwb6HDzYeW4QDKV2juVTISVIwL5QuH+NqcrbDGbQ3qtz7VafM5S0gIahfgc0AIKHeipetZmojOtv4ZHR1ifp2NQKTSVLGZzz5wrTU6MzHr9h/2DSxlQvfE5siyPpDLpIMuygW6vbyCdyw5qteOyum1Xq6knLaBRT+7etffH//loEOtwoAUUOtANwzBmWZaFitcWWZZnelxG41OBaHyKGIbxd3l9vzSZTJ5isXiiUBRenXOxzi4/nTr55us1a/106GAjw5kVn0NEdGp87O7F4nMkSRoci072m83m4Nqe3qHoVCwiFIuqdMY3Ij6nGbXSAhqF+BzQAwod6Imrem0iIisRCZVvyrI8Mh6dvHjeq6xZG6Tho4Mzr63Wfjp6uO5HidVtu5YSn1MqlQZOjp3eabfZQmt7ekdOT4wH6/1tLUbE5zidzqbPylWmBTSyOxPxOaAnFDrQjSzLIsMw7fKZiB1ZllMmk/ksUSwN130RhuHprA399PRTAzPvXXZFkJ55etH/YTIM0+/lPRHl8agK8TmJfKEQPjU+NuDzdDxqt9vPXfwnszkczsDffeGLA3quwynxOYIg0P79T2ecLlfT2XCNHEdA2y7QGwod6CnPcZxfFEUlS04ql8UJm8Px1jk5dLUwDE83vCtCu54IzXpv3Xo/Pf3UyAK/5NtdbRFlHU7t+BxZlkcmp2LXbOjzy0QkS5IkSJK04AyT4zj/Te+6OfKBD956ixpjqEc0Ojl+/XXXdTudTp8gFGjf/v2qx+dMH0dI5wShWKqenSI+B4yCQgd6ksqSlOY4U1+5LI4SEcmynBby+dfbfb53p6LR3xFRvuYvrdZ+uvb6EO16IjSr1deHbhugn/143l6XdpstXLkOp2XbrmNvHN9GRHRmplLz+gvF52hFic+55uqrukVRpOcOHEgWiyW3VhlxLlebw+WafjxptVrMp0+dnkR8DhgJhQ50JUvSpMlm2SxJ5ZQsy3EiIlmWY6lo9Lf2dvfVJoejsygI6VIhH5VY1kK9ay4lp4unyYkR+s3jwVkXW7M2SM8/O0g1durN07Yr2FAHlgYt9gi0u7sn+OWvfO2+giDUFTLbrGw2m/d4+OLN77rJTUSkd3wOEdFDDz344B8PHNCz6TbAHCh0oDuhUHi5vaPj2nQ8/oIsy5Nn3i7kU8n/oVSSiGHaWJv9AiKGnWnzVW3N2iBtvjhQXfxqxeecnhgP6h2ZU8nhcAbe+773h6uPC2h5ADudTo1ff9113SaTyZ5MJmnP4OC4z9fZbbfr06v54Yce3LHvqb1hHBeAVoA8OtASv6HPH58nm83i7uy8UcjlJgrZ7P/WfUWG4emqLWEiInr6qcqZAu90OMI9nV13EE2vw41NToTV2vq/FBzH+be8bWt4obZdzW7Pr6XN5Spu3nyRRRAK9Ps9g+Ntbe269ap8cveuvb947OdhHBeAVoJCB1paqNAREZHN6bq6vafnwvipk8+X8vnn570Sw/DUu2Y73fLeIP3wkTBlMjPXq47PmYzFdqQy6RAto/gctZsnZ9LpNDHEuVxtDrWuuRDE50ArQ6EDLS1a6M5wWNvaLu/YuClANrszNX56VDSZbUWTySqbTGY67/x+IpqO45mKzWxoYFk20NXhjTidzs1ErRGf02zbrlZIC2gU2nZBq0OhAy3VW+hmYVj2LWSz98kMY6Jc9lB1oCrDMH6+rT3S4fHcQrTy4nOMSgtoFOJzYLnAZhRoObIknaBc9kSNj3i7zRY6E+1DoigmJ2LRyGJtu7SkRXyO3mkBjUJ8Diw3KHSwLJjN5mCX1xdWjgtMxmI70tlMWMvjAovROj5Hj7SARiA+B5YrFDpoZNmYMgAACG1JREFUaYvF5xhB77ZdSpEzsuDdd9+/3vfC88+HsQ4HyxEKHbSk6vgctdt2LYXR8Tm9vb0+LY4jLATxObASoNCBZliWvZCIiOO4cxqZgVW37aonPkdLrRSfo6QFaD27Q3wOrCTYdQma6eD5Jzxu/qZsNntoLDrZv9j31YjPUVt3d0/wzi9/NdKKm0KI1D+OEIvFkg/c//3IK6+8HFbrmgBGw4wONMOxXF3FQYP4nKY5HM7ARz/28cjlV1y52agx1GOhtIBGIT4HVioUOjDSnPicVmjbpXd8TrOq0wIa7YaC+BxY6VDowBDVbbu0jM+phxHxOUrbrMuvuGK7GoVVmdHV+zjz6JEjo4jPgdUAhQ50ZUR8zmK6u3uCt3/iU2G9jgtUr4M99+yzdO3brw+otQ6oFLn5Nqwo90fbLlgtUOhAF8spPkdLlfE1Wt+/t7fXl8lk8izLMspuTcTnwGqEQgeaM1ssa85e33eMaFbbrrBR4+E4zv/OG26859YP3/Y+ve5ZGV/DMAwf2HbtgJptw+ajnLf77ZO7nnrs5z+/C8cFYDVCoQPNmM2mLiIii9ncSWR8fA7R3LZdWqcFVLfN0rpt2GL3B1iNcI4OVFcdnyNK5czxEye2tGp8jlrb86tVts1qNr5nKRCfAzANMzpQTXV8jiRJAsuyViFfGDaqyNUTn9Ps9vz53HTjzdujk5MjW7Zs3a7nOiDicwBmw4wO1MDbbbaQ0rZLWYdzOV03tLtcV9TbGUVNzcTntEpaQKMQnwNQG2Z00JSF4nNcDud1Roypz+8PhT73hfBSH0W2QlpAI2KxWDJy7z3h0ZERww7aA7QyFDpYkur4nFZp26VmfE6t7fmtBvE5AItDoYNGzWnbtZLjc5Tt+a02u0N8DkD9UOigbu1tbTs8bvd7TJypjag14nP0atvVKo8z0bYLoHEodFAvnmVYJ8OwbCabHZqIRT8iy/KLRg3GqPic6ceZ2hxHWAjicwCWDoUO6pVIpJLvT6SSvNViCa7p7vnviVg0rPcjy1aIz5l9HMFq0TrtG/E5AM1BoYNGJYRiMXJy7PSA0+EIe938kB6bUFoxPkfr7iqIzwFQBwodLFUim8uFcvl8v5f3RIql0ohyrEDNmyjrcHq2zWqUUuTUKnhKfA/adgGoA4UOmiLL8lA0PhXgOG57t9e3M5lJ75xp2Mww0/9+sQy3lGvrHZ/TrOm076UfR0B8DoA2UOhAFeVyeedYdHLQbrOFenydQ5PxqTDJsnjms1Qj1zIiPmdqamqso6Ojp9nrKOt1sVgs2cgMFPE5ANpBCzBQHcMwfo+bv9/d1hZgWdaay+cPn54YP7eO3y25bddSxWLRaGDrVp/b7aZsNksHhw6pev3FjiOgbReA9lDoQBMsywbOWrd+DxFRKpN5djIWvXKh7+sdX5PP5wv+vvXyxo0b7UREzx04kIzHExan06nJDsrqGR7icwD0g0IHmmIYxr/QBhWvz3frpz/9mW/puQ5nsZiTl1x8sdtkMtHw8HDulVcPl3ie17zA5nK5giSVpe/eF/kXrMMB6AdrdKCp+YpcZXzOiRNvjOsxlkwmHd0W2OqzWm1uQSjQ7t27o27e4+N5Xo/b0/59Tz2Ltl0A+sOMDnTFMAx/yWWXhe+44/N3VH+mVXutRCKR3HLN1W63202iKNK+/fuiZrNVtzZeR48cGf3OPd8OYh0OwBgodKCbeuJztEgL6PR5C5s2bbIdPny4MDJ6XNZqHa4a4nMAWgMKHWhuKfE5jW7PbzWIzwFoHSh0oBk12nYZnRbQKLTtAmg9KHSgOi3ic1p9hof4HIDWhUIHqtIyPkevtIBGID4HoPWh0IEq9IzP0SotoFGIzwFYHlDooCkcx/m3vG1rWM+2XQqjCt6Tu3ft/cVjPw/juADA8oBCB0vSKvE5mUwmLwhCUY8xID4HYHlCoYOGtWJ8jpabVRCfA7C8odBB3Srbdhk9lvmofRzhZz/9ya9+/cTjIbTtAli+UOhgUUbE5zSr2Rke4nMAVg4UOliQ3vE5bnc7JZMN5bTOazotQJIbOY6A+ByAlQeFDmrieX77Zz77uYhe63Budzvxbndy3bp17hdfHBovS9SdzeZUuXa9uzPRtgtgZUJMD8zCcZz/w3/5VwN6rcNZrVayWszRCy+4wEdEZ2aNLCeKJdXuoRS5+Qrek7t37UV8DsDKhRkdENHC8Tla4DiOrBZT8pJLLp15JHr48KvRYkn0qfXospZMJp0ThGLJ6/W6EZ8DsDqg0AERTUfofP2fvnmvHvdyOOz5DWefxbjdvI2IKJlMFIZfPybncnldWnvFp6ZSD/3gge+/+OKhL+lxPwAwFgodzND6saXb3U4Wsym6adO5M9v/Dxx4LiqWZV+5XNbilnOgbRfA6oNCB3MsJT9uMW53e+HCCy6YCVP905/+FM3lCz5BENS6xYIQnwOweqHQwbzqSQRvhNvdXhAK+ZjVZl+r5TpcJcTnAAAKHSxoOR4WJ0J8DgC8CYUO6rIc2n8pHn7owR37ntobxnEBACBCoYMGtWJDZwXicwCgFhQ6aJgS0fOlr3ztLqPHQoT4HABYGAodLBnHcf6b3nVz5AMfvPUWo8bwzW98/W7E5wDAQlDooGkOhzPw0Y99PHL5FVdu1uueiM8BgHqh0IFq1D6OUAvicwCgUSh0oCqtembGYrFk5N57wqMjIxE1rwsAKx8KHWhCzeMIiM8BgGag0IGmmsm1Q3wOAKgBhQ500UhSOeJzAEBNKHSgG47j/FvetjU8XzsxtO0CAC2g0IHuah1HQHwOAACsON3dPcF3/8UtOy0WS7/RYwEAAAAAAAAAAAAAAAAAAAAAAAAAAAAAAAAAAAAAAAAAAAAAAAAAAABV/D/q0TB76kQaHAAAAABJRU5ErkJggg==;" vertex="1" parent="Wbm_XTljqpT1_rQzuZGX-1">
          <mxGeometry y="250" width="543.61" height="428" as="geometry" />
        </mxCell>
        <mxCell id="Wbm_XTljqpT1_rQzuZGX-3" value="" style="shape=image;verticalLabelPosition=bottom;labelBackgroundColor=#ffffff;verticalAlign=top;aspect=fixed;imageAspect=0;image=http://cdn.onlinewebfonts.com/svg/img_485475.png;" vertex="1" parent="Wbm_XTljqpT1_rQzuZGX-1">
          <mxGeometry x="660" y="310" width="89.83" height="90" as="geometry" />
        </mxCell>
        <mxCell id="Wbm_XTljqpT1_rQzuZGX-4" value="" style="endArrow=classic;startArrow=classic;html=1;rounded=0;curved=1;exitX=0.368;exitY=0.701;exitDx=0;exitDy=0;exitPerimeter=0;strokeColor=#A8201A;dashed=1;fontColor=#A8201A;" edge="1" parent="Wbm_XTljqpT1_rQzuZGX-1" source="Wbm_XTljqpT1_rQzuZGX-2">
          <mxGeometry x="0.0341" y="-10" width="50" height="50" relative="1" as="geometry">
            <mxPoint x="220" y="460" as="sourcePoint" />
            <mxPoint x="640" y="340" as="targetPoint" />
            <Array as="points">
              <mxPoint x="240" y="360" />
            </Array>
            <mxPoint as="offset" />
          </mxGeometry>
        </mxCell>
        <mxCell id="Wbm_XTljqpT1_rQzuZGX-5" value="" style="endArrow=classic;startArrow=classic;html=1;rounded=0;curved=1;exitX=0.497;exitY=0.607;exitDx=0;exitDy=0;exitPerimeter=0;strokeColor=#A8201A;dashed=1;" edge="1" parent="Wbm_XTljqpT1_rQzuZGX-1" source="Wbm_XTljqpT1_rQzuZGX-2">
          <mxGeometry width="50" height="50" relative="1" as="geometry">
            <mxPoint x="210.04848000000015" y="560.028" as="sourcePoint" />
            <mxPoint x="640" y="350" as="targetPoint" />
            <Array as="points">
              <mxPoint x="330" y="380" />
            </Array>
          </mxGeometry>
        </mxCell>
        <mxCell id="Wbm_XTljqpT1_rQzuZGX-6" value="" style="endArrow=classic;startArrow=classic;html=1;rounded=0;curved=1;exitX=0.625;exitY=0.514;exitDx=0;exitDy=0;exitPerimeter=0;strokeColor=#A8201A;dashed=1;" edge="1" parent="Wbm_XTljqpT1_rQzuZGX-1" source="Wbm_XTljqpT1_rQzuZGX-2">
          <mxGeometry width="50" height="50" relative="1" as="geometry">
            <mxPoint x="280.17417000000023" y="519.7959999999998" as="sourcePoint" />
            <mxPoint x="640" y="360" as="targetPoint" />
            <Array as="points">
              <mxPoint x="370" y="400" />
            </Array>
          </mxGeometry>
        </mxCell>
        <mxCell id="Wbm_XTljqpT1_rQzuZGX-7" value="" style="endArrow=classic;startArrow=classic;html=1;rounded=0;curved=1;exitX=0.405;exitY=0.117;exitDx=0;exitDy=0;exitPerimeter=0;strokeColor=#A8201A;dashed=1;" edge="1" parent="Wbm_XTljqpT1_rQzuZGX-1" source="Wbm_XTljqpT1_rQzuZGX-2">
          <mxGeometry width="50" height="50" relative="1" as="geometry">
            <mxPoint x="290.17417000000023" y="529.7959999999998" as="sourcePoint" />
            <mxPoint x="640" y="310" as="targetPoint" />
            <Array as="points">
              <mxPoint x="360" y="180" />
            </Array>
          </mxGeometry>
        </mxCell>
        <mxCell id="Wbm_XTljqpT1_rQzuZGX-9" value="Power Grid" style="text;html=1;strokeColor=#d6b656;fillColor=#FAE5C7;align=center;verticalAlign=middle;whiteSpace=wrap;rounded=0;fontStyle=1;" vertex="1" parent="Wbm_XTljqpT1_rQzuZGX-1">
          <mxGeometry x="440" y="260" width="70" height="80" as="geometry" />
        </mxCell>
        <mxCell id="Wbm_XTljqpT1_rQzuZGX-12" value="" style="shape=image;verticalLabelPosition=bottom;labelBackgroundColor=#ffffff;verticalAlign=top;aspect=fixed;imageAspect=0;image=https://icon-library.com/images/notebook-icon-png/notebook-icon-png-23.jpg;" vertex="1" parent="Wbm_XTljqpT1_rQzuZGX-1">
          <mxGeometry x="902.25" y="312.5" width="137.5" height="137.5" as="geometry" />
        </mxCell>
        <mxCell id="Wbm_XTljqpT1_rQzuZGX-13" value="" style="endArrow=classic;startArrow=classic;html=1;rounded=0;curved=1;strokeColor=#A8201A;dashed=1;" edge="1" parent="Wbm_XTljqpT1_rQzuZGX-1">
          <mxGeometry width="50" height="50" relative="1" as="geometry">
            <mxPoint x="900" y="360" as="sourcePoint" />
            <mxPoint x="760" y="360" as="targetPoint" />
            <Array as="points" />
          </mxGeometry>
        </mxCell>
        <mxCell id="Wbm_XTljqpT1_rQzuZGX-14" value="IP Communication" style="edgeLabel;html=1;align=center;verticalAlign=middle;resizable=0;points=[];fontColor=#A8201A;" vertex="1" connectable="0" parent="Wbm_XTljqpT1_rQzuZGX-13">
          <mxGeometry x="0.1786" y="1" relative="1" as="geometry">
            <mxPoint x="13" as="offset" />
          </mxGeometry>
        </mxCell>
        <mxCell id="Wbm_XTljqpT1_rQzuZGX-15" value="Gateway" style="text;html=1;strokeColor=#d6b656;fillColor=#FAE5C7;align=center;verticalAlign=middle;whiteSpace=wrap;rounded=0;fontStyle=1;" vertex="1" parent="Wbm_XTljqpT1_rQzuZGX-1">
          <mxGeometry x="649.92" y="400" width="110" height="30" as="geometry" />
        </mxCell>
        <mxCell id="Wbm_XTljqpT1_rQzuZGX-16" value="Remote System" style="text;html=1;strokeColor=#d6b656;fillColor=#FAE5C7;align=center;verticalAlign=middle;whiteSpace=wrap;rounded=0;fontStyle=1;" vertex="1" parent="Wbm_XTljqpT1_rQzuZGX-1">
          <mxGeometry x="916" y="400" width="110" height="30" as="geometry" />
        </mxCell>
        <mxCell id="Wbm_XTljqpT1_rQzuZGX-17" value="&lt;div style=&quot;font-size: 11px;&quot;&gt;Local&lt;/div&gt;&lt;div style=&quot;font-size: 11px;&quot;&gt;System&lt;br style=&quot;font-size: 11px;&quot;&gt;&lt;/div&gt;" style="text;html=1;strokeColor=#d6b656;fillColor=#FAE5C7;align=center;verticalAlign=middle;whiteSpace=wrap;rounded=0;fontStyle=1;fontSize=11;" vertex="1" parent="Wbm_XTljqpT1_rQzuZGX-1">
          <mxGeometry x="310" y="510" width="50" height="40" as="geometry" />
        </mxCell>
        <mxCell id="Wbm_XTljqpT1_rQzuZGX-18" value="&lt;div style=&quot;font-size: 11px;&quot;&gt;Local&lt;/div&gt;&lt;div style=&quot;font-size: 11px;&quot;&gt;System&lt;br style=&quot;font-size: 11px;&quot;&gt;&lt;/div&gt;" style="text;html=1;strokeColor=#d6b656;fillColor=#FAE5C7;align=center;verticalAlign=middle;whiteSpace=wrap;rounded=0;fontStyle=1;fontSize=11;" vertex="1" parent="Wbm_XTljqpT1_rQzuZGX-1">
          <mxGeometry x="240" y="550" width="50" height="40" as="geometry" />
        </mxCell>
        <mxCell id="Wbm_XTljqpT1_rQzuZGX-19" value="&lt;div style=&quot;font-size: 11px;&quot;&gt;Local&lt;/div&gt;&lt;div style=&quot;font-size: 11px;&quot;&gt;System&lt;br style=&quot;font-size: 11px;&quot;&gt;&lt;/div&gt;" style="text;html=1;strokeColor=#d6b656;fillColor=#FAE5C7;align=center;verticalAlign=middle;whiteSpace=wrap;rounded=0;fontStyle=1;fontSize=11;" vertex="1" parent="Wbm_XTljqpT1_rQzuZGX-1">
          <mxGeometry x="160" y="590" width="50" height="40" as="geometry" />
        </mxCell>
        <mxCell id="Wbm_XTljqpT1_rQzuZGX-20" value="&lt;div style=&quot;font-size: 11px;&quot;&gt;Local&lt;/div&gt;&lt;div style=&quot;font-size: 11px;&quot;&gt;System&lt;br style=&quot;font-size: 11px;&quot;&gt;&lt;/div&gt;" style="text;html=1;strokeColor=#d6b656;fillColor=#FAE5C7;align=center;verticalAlign=middle;whiteSpace=wrap;rounded=0;fontStyle=1;fontSize=11;" vertex="1" parent="Wbm_XTljqpT1_rQzuZGX-1">
          <mxGeometry x="170" y="340" width="50" height="40" as="geometry" />
        </mxCell>
        <mxCell id="Wbm_XTljqpT1_rQzuZGX-21" value="" style="endArrow=classic;startArrow=classic;html=1;rounded=0;curved=1;exitX=0.258;exitY=0.234;exitDx=0;exitDy=0;exitPerimeter=0;strokeColor=#A8201A;dashed=1;" edge="1" parent="Wbm_XTljqpT1_rQzuZGX-1" source="Wbm_XTljqpT1_rQzuZGX-2">
          <mxGeometry width="50" height="50" relative="1" as="geometry">
            <mxPoint x="239.94703000000004" y="319.91999999999996" as="sourcePoint" />
            <mxPoint x="650" y="300" as="targetPoint" />
            <Array as="points">
              <mxPoint x="300" y="140" />
            </Array>
          </mxGeometry>
        </mxCell>
        <mxCell id="Wbm_XTljqpT1_rQzuZGX-22" value="&lt;div style=&quot;font-size: 11px;&quot;&gt;Local&lt;/div&gt;&lt;div style=&quot;font-size: 11px;&quot;&gt;System&lt;br style=&quot;font-size: 11px;&quot;&gt;&lt;/div&gt;" style="text;html=1;strokeColor=#d6b656;fillColor=#FAE5C7;align=center;verticalAlign=middle;whiteSpace=wrap;rounded=0;fontStyle=1;fontSize=11;" vertex="1" parent="Wbm_XTljqpT1_rQzuZGX-1">
          <mxGeometry x="100" y="380" width="50" height="40" as="geometry" />
        </mxCell>
        <mxCell id="Wbm_XTljqpT1_rQzuZGX-23" value="" style="endArrow=classic;startArrow=classic;html=1;rounded=0;curved=1;exitX=0.11;exitY=0.327;exitDx=0;exitDy=0;exitPerimeter=0;strokeColor=#A8201A;dashed=1;" edge="1" parent="Wbm_XTljqpT1_rQzuZGX-1" source="Wbm_XTljqpT1_rQzuZGX-2">
          <mxGeometry width="50" height="50" relative="1" as="geometry">
            <mxPoint x="160.03636000000006" y="360.15200000000004" as="sourcePoint" />
            <mxPoint x="660" y="290" as="targetPoint" />
            <Array as="points">
              <mxPoint x="272" y="120" />
            </Array>
          </mxGeometry>
        </mxCell>
        <mxCell id="Wbm_XTljqpT1_rQzuZGX-24" value="&lt;div style=&quot;font-size: 11px;&quot;&gt;Local&lt;/div&gt;&lt;div style=&quot;font-size: 11px;&quot;&gt;System&lt;br style=&quot;font-size: 11px;&quot;&gt;&lt;/div&gt;" style="text;html=1;strokeColor=#d6b656;fillColor=#FAE5C7;align=center;verticalAlign=middle;whiteSpace=wrap;rounded=0;fontStyle=1;fontSize=11;" vertex="1" parent="Wbm_XTljqpT1_rQzuZGX-1">
          <mxGeometry x="20" y="421.25" width="50" height="40" as="geometry" />
        </mxCell>
        <mxCell id="Eov7Wwvr-s__mAJSu5uo-0" value="&lt;div style=&quot;font-size: 11px;&quot;&gt;Local&lt;/div&gt;&lt;div style=&quot;font-size: 11px;&quot;&gt;System&lt;br style=&quot;font-size: 11px;&quot;&gt;&lt;/div&gt;" style="text;html=1;strokeColor=#d6b656;fillColor=#FAE5C7;align=center;verticalAlign=middle;whiteSpace=wrap;rounded=0;fontStyle=1;fontSize=11;" vertex="1" parent="Wbm_XTljqpT1_rQzuZGX-1">
          <mxGeometry x="390" y="470" width="50" height="40" as="geometry" />
        </mxCell>
        <mxCell id="Eov7Wwvr-s__mAJSu5uo-1" value="" style="endArrow=classic;startArrow=classic;html=1;rounded=0;curved=1;exitX=0.791;exitY=0.444;exitDx=0;exitDy=0;exitPerimeter=0;strokeColor=#A8201A;dashed=1;" edge="1" parent="Wbm_XTljqpT1_rQzuZGX-1" source="Wbm_XTljqpT1_rQzuZGX-2">
          <mxGeometry width="50" height="50" relative="1" as="geometry">
            <mxPoint x="349.75625000000014" y="479.99199999999996" as="sourcePoint" />
            <mxPoint x="640" y="370" as="targetPoint" />
            <Array as="points">
              <mxPoint x="460" y="410" />
            </Array>
          </mxGeometry>
        </mxCell>
      </root>
    </mxGraphModel>
  </diagram>
  <diagram id="TCjJgxF-7QBBWSU6p00K" name="Page-2">
    <mxGraphModel dx="1350" dy="764" grid="1" gridSize="10" guides="1" tooltips="1" connect="1" arrows="1" fold="1" page="1" pageScale="1" pageWidth="850" pageHeight="1100" math="0" shadow="0">
      <root>
        <mxCell id="vBma-m5IgeUv3uDq0MKx-0" />
        <mxCell id="vBma-m5IgeUv3uDq0MKx-1" parent="vBma-m5IgeUv3uDq0MKx-0" />
        <mxCell id="vBma-m5IgeUv3uDq0MKx-2" value="Network Infrastructure" style="rounded=1;whiteSpace=wrap;html=1;fillColor=#ffe6cc;strokeColor=#d79b00;fontStyle=1" parent="vBma-m5IgeUv3uDq0MKx-1" vertex="1">
          <mxGeometry x="65" y="250" width="235" height="40" as="geometry" />
        </mxCell>
        <mxCell id="vBma-m5IgeUv3uDq0MKx-3" value="BS1" style="rounded=0;whiteSpace=wrap;html=1;fillColor=#fff2cc;strokeColor=#d6b656;" parent="vBma-m5IgeUv3uDq0MKx-1" vertex="1">
          <mxGeometry x="100" y="290" width="50" height="40" as="geometry" />
        </mxCell>
        <mxCell id="vBma-m5IgeUv3uDq0MKx-4" value="BS2" style="rounded=0;whiteSpace=wrap;html=1;fillColor=#fff2cc;strokeColor=#d6b656;" parent="vBma-m5IgeUv3uDq0MKx-1" vertex="1">
          <mxGeometry x="210" y="290" width="50" height="40" as="geometry" />
        </mxCell>
        <mxCell id="LL0glHSxHUQ54KGMcyOu-2" value="" style="rounded=1;whiteSpace=wrap;html=1;fontColor=#A8201A;dashed=1;" parent="vBma-m5IgeUv3uDq0MKx-1" vertex="1">
          <mxGeometry x="76.25" y="330" width="97.5" height="80" as="geometry" />
        </mxCell>
        <mxCell id="LL0glHSxHUQ54KGMcyOu-3" value="" style="rounded=1;whiteSpace=wrap;html=1;fontColor=#A8201A;dashed=1;" parent="vBma-m5IgeUv3uDq0MKx-1" vertex="1">
          <mxGeometry x="186.25" y="330" width="97.5" height="80" as="geometry" />
        </mxCell>
        <mxCell id="LL0glHSxHUQ54KGMcyOu-4" value="A" style="ellipse;whiteSpace=wrap;html=1;aspect=fixed;fillColor=#f8cecc;strokeColor=#b85450;" parent="vBma-m5IgeUv3uDq0MKx-1" vertex="1">
          <mxGeometry x="90" y="340" width="30" height="30" as="geometry" />
        </mxCell>
        <mxCell id="LL0glHSxHUQ54KGMcyOu-5" value="B" style="ellipse;whiteSpace=wrap;html=1;aspect=fixed;fillColor=#f8cecc;strokeColor=#b85450;" parent="vBma-m5IgeUv3uDq0MKx-1" vertex="1">
          <mxGeometry x="130" y="370" width="30" height="30" as="geometry" />
        </mxCell>
        <mxCell id="LL0glHSxHUQ54KGMcyOu-6" value="C" style="ellipse;whiteSpace=wrap;html=1;aspect=fixed;fillColor=#f8cecc;strokeColor=#b85450;" parent="vBma-m5IgeUv3uDq0MKx-1" vertex="1">
          <mxGeometry x="200" y="340" width="30" height="30" as="geometry" />
        </mxCell>
        <mxCell id="LL0glHSxHUQ54KGMcyOu-7" value="D" style="ellipse;whiteSpace=wrap;html=1;aspect=fixed;fillColor=#f8cecc;strokeColor=#b85450;" parent="vBma-m5IgeUv3uDq0MKx-1" vertex="1">
          <mxGeometry x="240" y="350" width="30" height="30" as="geometry" />
        </mxCell>
        <mxCell id="LL0glHSxHUQ54KGMcyOu-8" value="E" style="ellipse;whiteSpace=wrap;html=1;aspect=fixed;fillColor=#f8cecc;strokeColor=#b85450;" parent="vBma-m5IgeUv3uDq0MKx-1" vertex="1">
          <mxGeometry x="210" y="373" width="30" height="30" as="geometry" />
        </mxCell>
      </root>
    </mxGraphModel>
  </diagram>
</mxfile>
